<mxfile host="65bd71144e" compressed="false">
    <diagram id="Network Topology" name="Network Topology">
        <mxGraphModel dx="1266" dy="654" grid="0" gridSize="10" guides="1" tooltips="1" connect="1" arrows="1" fold="1" page="1" pageScale="1" pageWidth="1550" pageHeight="725" background="none" math="0" shadow="0">
            <root>
                <mxCell id="0"/>
                <mxCell id="1" parent="0"/>
                <object label="earth" id="clab-sites-earth">
                    <mxCell style="shape=image;imageAlign=center;imageVerticalAlign=middle;labelPosition=left;align=right;verticalLabelPosition=top;spacingLeft=0;verticalAlign=bottom;spacingTop=0;spacing=0;editableCssRules=\.st[0-2]$;labelBackgroundColor=none;aspect=fixed;imageAspect=0;image=data:image/svg+xml,PHN2ZyB4bWxuczp4bGluaz0iaHR0cDovL3d3dy53My5vcmcvMTk5OS94bGluayIgeG1sbnM9Imh0dHA6Ly93d3cudzMub3JnLzIwMDAvc3ZnIiB4bWw6c3BhY2U9InByZXNlcnZlIiBzdHlsZT0iZW5hYmxlLWJhY2tncm91bmQ6bmV3IDAgMCAxMjAgMTIwO2VkaXRhYmxlQ3NzUnVsZXM9Lio7IiB2aWV3Qm94PSIwIDAgMTIwIDEyMCIgeT0iMHB4IiB4PSIwcHgiIGlkPSJMYXllcl8xIiB2ZXJzaW9uPSIxLjEiPiYjeGE7PHN0eWxlIHR5cGU9InRleHQvY3NzIj4mI3hhOwkuc3Qwe2ZpbGw6IzAwMTEzNTt9JiN4YTsJLnN0MXtmaWxsOm5vbmU7c3Ryb2tlOiNGRkZGRkY7c3Ryb2tlLXdpZHRoOjQ7c3Ryb2tlLWxpbmVjYXA6cm91bmQ7c3Ryb2tlLWxpbmVqb2luOnJvdW5kO3N0cm9rZS1taXRlcmxpbWl0OjEwO30mI3hhOwkuc3Qye2ZpbGw6I0ZGRkZGRjt9JiN4YTsJLnN0M3tmaWxsOm5vbmU7c3Ryb2tlOiNGRkZGRkY7c3Ryb2tlLXdpZHRoOjQ7c3Ryb2tlLW1pdGVybGltaXQ6MTA7fSYjeGE7CS5zdDR7ZmlsbDpub25lO3N0cm9rZTojRkZGRkZGO3N0cm9rZS13aWR0aDo0O3N0cm9rZS1saW5lY2FwOnJvdW5kO3N0cm9rZS1saW5lam9pbjpyb3VuZDt9JiN4YTsJLnN0NXtmaWxsOiNGRkZGRkY7c3Ryb2tlOiNGRkZGRkY7c3Ryb2tlLXdpZHRoOjQ7c3Ryb2tlLWxpbmVjYXA6cm91bmQ7c3Ryb2tlLWxpbmVqb2luOnJvdW5kO3N0cm9rZS1taXRlcmxpbWl0OjEwO30mI3hhOwkuc3Q2e2ZpbGw6bm9uZTtzdHJva2U6I0ZGRkZGRjtzdHJva2Utd2lkdGg6NC4yMzMzO3N0cm9rZS1saW5lY2FwOnJvdW5kO3N0cm9rZS1saW5lam9pbjpyb3VuZDtzdHJva2UtbWl0ZXJsaW1pdDoxMDt9JiN4YTsJLnN0N3tmaWxsOm5vbmU7c3Ryb2tlOiNGRkZGRkY7c3Ryb2tlLXdpZHRoOjQ7c3Ryb2tlLWxpbmVjYXA6cm91bmQ7c3Ryb2tlLW1pdGVybGltaXQ6MTA7fSYjeGE7CS5zdDh7ZmlsbDojRkZGRkZGO3N0cm9rZTojRkZGRkZGO3N0cm9rZS13aWR0aDo0O3N0cm9rZS1taXRlcmxpbWl0OjEwO30mI3hhOwkuc3Q5e2ZpbGw6I0ZGRkZGRjtzdHJva2U6I0ZGRkZGRjtzdHJva2Utd2lkdGg6NDt9JiN4YTsJLnN0MTB7ZmlsbDpub25lO3N0cm9rZTojRkZGRkZGO3N0cm9rZS13aWR0aDo0O30mI3hhOwkuc3QxMXtmaWxsOiMyNjI2MjY7c3Ryb2tlOiNGRkZGRkY7c3Ryb2tlLXdpZHRoOjQuMjMzMzt9JiN4YTsJLnN0MTJ7ZmlsbC1ydWxlOmV2ZW5vZGQ7Y2xpcC1ydWxlOmV2ZW5vZGQ7ZmlsbDpub25lO3N0cm9rZTojRkZGRkZGO3N0cm9rZS13aWR0aDo0O3N0cm9rZS1taXRlcmxpbWl0OjEwO30mI3hhOwkuc3QxM3tmaWxsLXJ1bGU6ZXZlbm9kZDtjbGlwLXJ1bGU6ZXZlbm9kZDtmaWxsOiNGRkZGRkY7c3Ryb2tlOiNGRkZGRkY7c3Ryb2tlLXdpZHRoOjQ7fSYjeGE7CS5zdDE0e2ZpbGw6bm9uZTtzdHJva2U6I0ZGRkZGRjtzdHJva2Utd2lkdGg6NC4yMzMzO3N0cm9rZS1saW5lY2FwOnJvdW5kO3N0cm9rZS1saW5lam9pbjpyb3VuZDt9JiN4YTsJLnN0MTV7ZmlsbDpub25lO3N0cm9rZTojRkZGRkZGO3N0cm9rZS13aWR0aDo0O3N0cm9rZS1saW5lY2FwOnJvdW5kO30mI3hhOwkuc3QxNntmaWxsOiNGRkZGRkY7c3Ryb2tlOiNGRkZGRkY7c3Ryb2tlLW1pdGVybGltaXQ6MTA7fSYjeGE7CS5zdDE3e2ZpbGw6IzI2MjYyNjtzdHJva2U6I0ZGRkZGRjtzdHJva2Utd2lkdGg6NDtzdHJva2UtbWl0ZXJsaW1pdDoxMDt9JiN4YTsJLnN0MTh7ZmlsbDojRkZGRkZGO3N0cm9rZTojRkZGRkZGO3N0cm9rZS13aWR0aDo0O3N0cm9rZS1saW5lY2FwOnJvdW5kO3N0cm9rZS1saW5lam9pbjpyb3VuZDt9JiN4YTs8L3N0eWxlPiYjeGE7PHJlY3QgaGVpZ2h0PSIxMjAiIHdpZHRoPSIxMjAiIGNsYXNzPSJzdDAiLz4mI3hhOzxnPiYjeGE7CTxnPiYjeGE7CQk8cGF0aCBkPSJNNzEuNywxOS43VjQ4aDI4IiBjbGFzcz0ic3QxIi8+JiN4YTsJCTxwYXRoIGQ9Ik05MS4yLDM4LjVsNy41LDcuNmMxLjMsMS4zLDEuMywzLjEsMCw0LjNMOTEuMSw1OCIgY2xhc3M9InN0MSIvPiYjeGE7CTwvZz4mI3hhOwk8Zz4mI3hhOwkJPHBhdGggZD0iTTIwLDQ3LjhoMjguNHYtMjgiIGNsYXNzPSJzdDEiLz4mI3hhOwkJPHBhdGggZD0iTTM4LjgsMjguM2w3LjYtNy41YzEuMy0xLjMsMy4xLTEuMyw0LjMsMGw3LjcsNy42IiBjbGFzcz0ic3QxIi8+JiN4YTsJPC9nPiYjeGE7CTxnPiYjeGE7CQk8cGF0aCBkPSJNNDgsMTAwLjNWNzJIMjAiIGNsYXNzPSJzdDEiLz4mI3hhOwkJPHBhdGggZD0iTTI4LjUsODEuNUwyMSw3My45Yy0xLjMtMS4zLTEuMy0zLjEsMC00LjNsNy42LTcuNyIgY2xhc3M9InN0MSIvPiYjeGE7CTwvZz4mI3hhOwk8Zz4mI3hhOwkJPHBhdGggZD0iTTEwMCw3MS45SDcxLjZ2MjgiIGNsYXNzPSJzdDEiLz4mI3hhOwkJPHBhdGggZD0iTTgxLjIsOTEuNGwtNy42LDcuNWMtMS4zLDEuMy0zLjEsMS4zLTQuMywwbC03LjctNy42IiBjbGFzcz0ic3QxIi8+JiN4YTsJPC9nPiYjeGE7PC9nPiYjeGE7PC9zdmc+;" parent="1" vertex="1">
                        <mxGeometry x="661" y="34" width="75" height="75" as="geometry"/>
                    </mxCell>
                </object>
                <object label="wan1" id="clab-sites-wan1">
                    <mxCell style="shape=image;imageAlign=center;imageVerticalAlign=middle;labelPosition=left;align=right;verticalLabelPosition=top;spacingLeft=0;verticalAlign=bottom;spacingTop=0;spacing=0;editableCssRules=\.st[0-2]$;labelBackgroundColor=none;aspect=fixed;imageAspect=0;image=data:image/svg+xml,PHN2ZyB4bWxuczp4bGluaz0iaHR0cDovL3d3dy53My5vcmcvMTk5OS94bGluayIgeG1sbnM9Imh0dHA6Ly93d3cudzMub3JnLzIwMDAvc3ZnIiB4bWw6c3BhY2U9InByZXNlcnZlIiBzdHlsZT0iZW5hYmxlLWJhY2tncm91bmQ6bmV3IDAgMCAxMjAgMTIwO2VkaXRhYmxlQ3NzUnVsZXM9Lio7IiB2aWV3Qm94PSIwIDAgMTIwIDEyMCIgeT0iMHB4IiB4PSIwcHgiIGlkPSJMYXllcl8xIiB2ZXJzaW9uPSIxLjEiPiYjeGE7PHN0eWxlIHR5cGU9InRleHQvY3NzIj4mI3hhOwkuc3Qwe2ZpbGw6IzAwMTEzNTt9JiN4YTsJLnN0MXtmaWxsOm5vbmU7c3Ryb2tlOiNGRkZGRkY7c3Ryb2tlLXdpZHRoOjQ7c3Ryb2tlLWxpbmVjYXA6cm91bmQ7c3Ryb2tlLWxpbmVqb2luOnJvdW5kO3N0cm9rZS1taXRlcmxpbWl0OjEwO30mI3hhOwkuc3Qye2ZpbGw6I0ZGRkZGRjt9JiN4YTsJLnN0M3tmaWxsOm5vbmU7c3Ryb2tlOiNGRkZGRkY7c3Ryb2tlLXdpZHRoOjQ7c3Ryb2tlLW1pdGVybGltaXQ6MTA7fSYjeGE7CS5zdDR7ZmlsbDpub25lO3N0cm9rZTojRkZGRkZGO3N0cm9rZS13aWR0aDo0O3N0cm9rZS1saW5lY2FwOnJvdW5kO3N0cm9rZS1saW5lam9pbjpyb3VuZDt9JiN4YTsJLnN0NXtmaWxsOiNGRkZGRkY7c3Ryb2tlOiNGRkZGRkY7c3Ryb2tlLXdpZHRoOjQ7c3Ryb2tlLWxpbmVjYXA6cm91bmQ7c3Ryb2tlLWxpbmVqb2luOnJvdW5kO3N0cm9rZS1taXRlcmxpbWl0OjEwO30mI3hhOwkuc3Q2e2ZpbGw6bm9uZTtzdHJva2U6I0ZGRkZGRjtzdHJva2Utd2lkdGg6NC4yMzMzO3N0cm9rZS1saW5lY2FwOnJvdW5kO3N0cm9rZS1saW5lam9pbjpyb3VuZDtzdHJva2UtbWl0ZXJsaW1pdDoxMDt9JiN4YTsJLnN0N3tmaWxsOm5vbmU7c3Ryb2tlOiNGRkZGRkY7c3Ryb2tlLXdpZHRoOjQ7c3Ryb2tlLWxpbmVjYXA6cm91bmQ7c3Ryb2tlLW1pdGVybGltaXQ6MTA7fSYjeGE7CS5zdDh7ZmlsbDojRkZGRkZGO3N0cm9rZTojRkZGRkZGO3N0cm9rZS13aWR0aDo0O3N0cm9rZS1taXRlcmxpbWl0OjEwO30mI3hhOwkuc3Q5e2ZpbGw6I0ZGRkZGRjtzdHJva2U6I0ZGRkZGRjtzdHJva2Utd2lkdGg6NDt9JiN4YTsJLnN0MTB7ZmlsbDpub25lO3N0cm9rZTojRkZGRkZGO3N0cm9rZS13aWR0aDo0O30mI3hhOwkuc3QxMXtmaWxsOiMyNjI2MjY7c3Ryb2tlOiNGRkZGRkY7c3Ryb2tlLXdpZHRoOjQuMjMzMzt9JiN4YTsJLnN0MTJ7ZmlsbC1ydWxlOmV2ZW5vZGQ7Y2xpcC1ydWxlOmV2ZW5vZGQ7ZmlsbDpub25lO3N0cm9rZTojRkZGRkZGO3N0cm9rZS13aWR0aDo0O3N0cm9rZS1taXRlcmxpbWl0OjEwO30mI3hhOwkuc3QxM3tmaWxsLXJ1bGU6ZXZlbm9kZDtjbGlwLXJ1bGU6ZXZlbm9kZDtmaWxsOiNGRkZGRkY7c3Ryb2tlOiNGRkZGRkY7c3Ryb2tlLXdpZHRoOjQ7fSYjeGE7CS5zdDE0e2ZpbGw6bm9uZTtzdHJva2U6I0ZGRkZGRjtzdHJva2Utd2lkdGg6NC4yMzMzO3N0cm9rZS1saW5lY2FwOnJvdW5kO3N0cm9rZS1saW5lam9pbjpyb3VuZDt9JiN4YTsJLnN0MTV7ZmlsbDpub25lO3N0cm9rZTojRkZGRkZGO3N0cm9rZS13aWR0aDo0O3N0cm9rZS1saW5lY2FwOnJvdW5kO30mI3hhOwkuc3QxNntmaWxsOiNGRkZGRkY7c3Ryb2tlOiNGRkZGRkY7c3Ryb2tlLW1pdGVybGltaXQ6MTA7fSYjeGE7CS5zdDE3e2ZpbGw6IzI2MjYyNjtzdHJva2U6I0ZGRkZGRjtzdHJva2Utd2lkdGg6NDtzdHJva2UtbWl0ZXJsaW1pdDoxMDt9JiN4YTsJLnN0MTh7ZmlsbDojRkZGRkZGO3N0cm9rZTojRkZGRkZGO3N0cm9rZS13aWR0aDo0O3N0cm9rZS1saW5lY2FwOnJvdW5kO3N0cm9rZS1saW5lam9pbjpyb3VuZDt9JiN4YTs8L3N0eWxlPiYjeGE7PHJlY3QgaGVpZ2h0PSIxMjAiIHdpZHRoPSIxMjAiIGNsYXNzPSJzdDAiLz4mI3hhOzxnPiYjeGE7CTxnPiYjeGE7CQk8cGF0aCBkPSJNNzEuNywxOS43VjQ4aDI4IiBjbGFzcz0ic3QxIi8+JiN4YTsJCTxwYXRoIGQ9Ik05MS4yLDM4LjVsNy41LDcuNmMxLjMsMS4zLDEuMywzLjEsMCw0LjNMOTEuMSw1OCIgY2xhc3M9InN0MSIvPiYjeGE7CTwvZz4mI3hhOwk8Zz4mI3hhOwkJPHBhdGggZD0iTTIwLDQ3LjhoMjguNHYtMjgiIGNsYXNzPSJzdDEiLz4mI3hhOwkJPHBhdGggZD0iTTM4LjgsMjguM2w3LjYtNy41YzEuMy0xLjMsMy4xLTEuMyw0LjMsMGw3LjcsNy42IiBjbGFzcz0ic3QxIi8+JiN4YTsJPC9nPiYjeGE7CTxnPiYjeGE7CQk8cGF0aCBkPSJNNDgsMTAwLjNWNzJIMjAiIGNsYXNzPSJzdDEiLz4mI3hhOwkJPHBhdGggZD0iTTI4LjUsODEuNUwyMSw3My45Yy0xLjMtMS4zLTEuMy0zLjEsMC00LjNsNy42LTcuNyIgY2xhc3M9InN0MSIvPiYjeGE7CTwvZz4mI3hhOwk8Zz4mI3hhOwkJPHBhdGggZD0iTTEwMCw3MS45SDcxLjZ2MjgiIGNsYXNzPSJzdDEiLz4mI3hhOwkJPHBhdGggZD0iTTgxLjIsOTEuNGwtNy42LDcuNWMtMS4zLDEuMy0zLjEsMS4zLTQuMywwbC03LjctNy42IiBjbGFzcz0ic3QxIi8+JiN4YTsJPC9nPiYjeGE7PC9nPiYjeGE7PC9zdmc+;" parent="1" vertex="1">
                        <mxGeometry x="339" y="258" width="75" height="75" as="geometry"/>
                    </mxCell>
                </object>
                <object label="access1" id="clab-sites-access1">
                    <mxCell style="shape=image;imageAlign=center;imageVerticalAlign=middle;labelPosition=left;align=right;verticalLabelPosition=top;spacingLeft=0;verticalAlign=bottom;spacingTop=0;spacing=0;editableCssRules=\.st[0-2]$;labelBackgroundColor=none;aspect=fixed;imageAspect=0;image=data:image/svg+xml,PHN2ZyB4bWxuczp4bGluaz0iaHR0cDovL3d3dy53My5vcmcvMTk5OS94bGluayIgeG1sbnM9Imh0dHA6Ly93d3cudzMub3JnLzIwMDAvc3ZnIiB4bWw6c3BhY2U9InByZXNlcnZlIiBzdHlsZT0iZW5hYmxlLWJhY2tncm91bmQ6bmV3IDAgMCAxMjAgMTIwO2VkaXRhYmxlQ3NzUnVsZXM9Lio7IiB2aWV3Qm94PSIwIDAgMTIwIDEyMCIgeT0iMHB4IiB4PSIwcHgiIGlkPSJMYXllcl8xIiB2ZXJzaW9uPSIxLjEiPiYjeGE7PHN0eWxlIHR5cGU9InRleHQvY3NzIj4mI3hhOwkuc3Qwe2ZpbGw6IzAwMTEzNTt9JiN4YTsJLnN0MXtmaWxsOm5vbmU7c3Ryb2tlOiNGRkZGRkY7c3Ryb2tlLXdpZHRoOjQ7c3Ryb2tlLWxpbmVjYXA6cm91bmQ7c3Ryb2tlLWxpbmVqb2luOnJvdW5kO3N0cm9rZS1taXRlcmxpbWl0OjEwO30mI3hhOwkuc3Qye2ZpbGw6I0ZGRkZGRjt9JiN4YTsJLnN0M3tmaWxsOm5vbmU7c3Ryb2tlOiNGRkZGRkY7c3Ryb2tlLXdpZHRoOjQ7c3Ryb2tlLW1pdGVybGltaXQ6MTA7fSYjeGE7CS5zdDR7ZmlsbDpub25lO3N0cm9rZTojRkZGRkZGO3N0cm9rZS13aWR0aDo0O3N0cm9rZS1saW5lY2FwOnJvdW5kO3N0cm9rZS1saW5lam9pbjpyb3VuZDt9JiN4YTsJLnN0NXtmaWxsOiNGRkZGRkY7c3Ryb2tlOiNGRkZGRkY7c3Ryb2tlLXdpZHRoOjQ7c3Ryb2tlLWxpbmVjYXA6cm91bmQ7c3Ryb2tlLWxpbmVqb2luOnJvdW5kO3N0cm9rZS1taXRlcmxpbWl0OjEwO30mI3hhOwkuc3Q2e2ZpbGw6bm9uZTtzdHJva2U6I0ZGRkZGRjtzdHJva2Utd2lkdGg6NC4yMzMzO3N0cm9rZS1saW5lY2FwOnJvdW5kO3N0cm9rZS1saW5lam9pbjpyb3VuZDtzdHJva2UtbWl0ZXJsaW1pdDoxMDt9JiN4YTsJLnN0N3tmaWxsOm5vbmU7c3Ryb2tlOiNGRkZGRkY7c3Ryb2tlLXdpZHRoOjQ7c3Ryb2tlLWxpbmVjYXA6cm91bmQ7c3Ryb2tlLW1pdGVybGltaXQ6MTA7fSYjeGE7CS5zdDh7ZmlsbDojRkZGRkZGO3N0cm9rZTojRkZGRkZGO3N0cm9rZS13aWR0aDo0O3N0cm9rZS1taXRlcmxpbWl0OjEwO30mI3hhOwkuc3Q5e2ZpbGw6I0ZGRkZGRjtzdHJva2U6I0ZGRkZGRjtzdHJva2Utd2lkdGg6NDt9JiN4YTsJLnN0MTB7ZmlsbDpub25lO3N0cm9rZTojRkZGRkZGO3N0cm9rZS13aWR0aDo0O30mI3hhOwkuc3QxMXtmaWxsOiMyNjI2MjY7c3Ryb2tlOiNGRkZGRkY7c3Ryb2tlLXdpZHRoOjQuMjMzMzt9JiN4YTsJLnN0MTJ7ZmlsbC1ydWxlOmV2ZW5vZGQ7Y2xpcC1ydWxlOmV2ZW5vZGQ7ZmlsbDpub25lO3N0cm9rZTojRkZGRkZGO3N0cm9rZS13aWR0aDo0O3N0cm9rZS1taXRlcmxpbWl0OjEwO30mI3hhOwkuc3QxM3tmaWxsLXJ1bGU6ZXZlbm9kZDtjbGlwLXJ1bGU6ZXZlbm9kZDtmaWxsOiNGRkZGRkY7c3Ryb2tlOiNGRkZGRkY7c3Ryb2tlLXdpZHRoOjQ7fSYjeGE7CS5zdDE0e2ZpbGw6bm9uZTtzdHJva2U6I0ZGRkZGRjtzdHJva2Utd2lkdGg6NC4yMzMzO3N0cm9rZS1saW5lY2FwOnJvdW5kO3N0cm9rZS1saW5lam9pbjpyb3VuZDt9JiN4YTsJLnN0MTV7ZmlsbDpub25lO3N0cm9rZTojRkZGRkZGO3N0cm9rZS13aWR0aDo0O3N0cm9rZS1saW5lY2FwOnJvdW5kO30mI3hhOwkuc3QxNntmaWxsOiNGRkZGRkY7c3Ryb2tlOiNGRkZGRkY7c3Ryb2tlLW1pdGVybGltaXQ6MTA7fSYjeGE7CS5zdDE3e2ZpbGw6IzI2MjYyNjtzdHJva2U6I0ZGRkZGRjtzdHJva2Utd2lkdGg6NDtzdHJva2UtbWl0ZXJsaW1pdDoxMDt9JiN4YTsJLnN0MTh7ZmlsbDojRkZGRkZGO3N0cm9rZTojRkZGRkZGO3N0cm9rZS13aWR0aDo0O3N0cm9rZS1saW5lY2FwOnJvdW5kO3N0cm9rZS1saW5lam9pbjpyb3VuZDt9JiN4YTs8L3N0eWxlPiYjeGE7PHJlY3QgaGVpZ2h0PSIxMjAiIHdpZHRoPSIxMjAiIGNsYXNzPSJzdDAiLz4mI3hhOzxnPiYjeGE7CTxnPiYjeGE7CQk8cGF0aCBkPSJNNzEuNywxOS43VjQ4aDI4IiBjbGFzcz0ic3QxIi8+JiN4YTsJCTxwYXRoIGQ9Ik05MS4yLDM4LjVsNy41LDcuNmMxLjMsMS4zLDEuMywzLjEsMCw0LjNMOTEuMSw1OCIgY2xhc3M9InN0MSIvPiYjeGE7CTwvZz4mI3hhOwk8Zz4mI3hhOwkJPHBhdGggZD0iTTIwLDQ3LjhoMjguNHYtMjgiIGNsYXNzPSJzdDEiLz4mI3hhOwkJPHBhdGggZD0iTTM4LjgsMjguM2w3LjYtNy41YzEuMy0xLjMsMy4xLTEuMyw0LjMsMGw3LjcsNy42IiBjbGFzcz0ic3QxIi8+JiN4YTsJPC9nPiYjeGE7CTxnPiYjeGE7CQk8cGF0aCBkPSJNNDgsMTAwLjNWNzJIMjAiIGNsYXNzPSJzdDEiLz4mI3hhOwkJPHBhdGggZD0iTTI4LjUsODEuNUwyMSw3My45Yy0xLjMtMS4zLTEuMy0zLjEsMC00LjNsNy42LTcuNyIgY2xhc3M9InN0MSIvPiYjeGE7CTwvZz4mI3hhOwk8Zz4mI3hhOwkJPHBhdGggZD0iTTEwMCw3MS45SDcxLjZ2MjgiIGNsYXNzPSJzdDEiLz4mI3hhOwkJPHBhdGggZD0iTTgxLjIsOTEuNGwtNy42LDcuNWMtMS4zLDEuMy0zLjEsMS4zLTQuMywwbC03LjctNy42IiBjbGFzcz0ic3QxIi8+JiN4YTsJPC9nPiYjeGE7PC9nPiYjeGE7PC9zdmc+;" parent="1" vertex="1">
                        <mxGeometry x="341" y="421" width="75" height="75" as="geometry"/>
                    </mxCell>
                </object>
                <object label="wan2" id="clab-sites-wan2">
                    <mxCell style="shape=image;imageAlign=center;imageVerticalAlign=middle;labelPosition=left;align=right;verticalLabelPosition=top;spacingLeft=0;verticalAlign=bottom;spacingTop=0;spacing=0;editableCssRules=\.st[0-2]$;labelBackgroundColor=none;aspect=fixed;imageAspect=0;image=data:image/svg+xml,PHN2ZyB4bWxuczp4bGluaz0iaHR0cDovL3d3dy53My5vcmcvMTk5OS94bGluayIgeG1sbnM9Imh0dHA6Ly93d3cudzMub3JnLzIwMDAvc3ZnIiB4bWw6c3BhY2U9InByZXNlcnZlIiBzdHlsZT0iZW5hYmxlLWJhY2tncm91bmQ6bmV3IDAgMCAxMjAgMTIwO2VkaXRhYmxlQ3NzUnVsZXM9Lio7IiB2aWV3Qm94PSIwIDAgMTIwIDEyMCIgeT0iMHB4IiB4PSIwcHgiIGlkPSJMYXllcl8xIiB2ZXJzaW9uPSIxLjEiPiYjeGE7PHN0eWxlIHR5cGU9InRleHQvY3NzIj4mI3hhOwkuc3Qwe2ZpbGw6IzAwMTEzNTt9JiN4YTsJLnN0MXtmaWxsOm5vbmU7c3Ryb2tlOiNGRkZGRkY7c3Ryb2tlLXdpZHRoOjQ7c3Ryb2tlLWxpbmVjYXA6cm91bmQ7c3Ryb2tlLWxpbmVqb2luOnJvdW5kO3N0cm9rZS1taXRlcmxpbWl0OjEwO30mI3hhOwkuc3Qye2ZpbGw6I0ZGRkZGRjt9JiN4YTsJLnN0M3tmaWxsOm5vbmU7c3Ryb2tlOiNGRkZGRkY7c3Ryb2tlLXdpZHRoOjQ7c3Ryb2tlLW1pdGVybGltaXQ6MTA7fSYjeGE7CS5zdDR7ZmlsbDpub25lO3N0cm9rZTojRkZGRkZGO3N0cm9rZS13aWR0aDo0O3N0cm9rZS1saW5lY2FwOnJvdW5kO3N0cm9rZS1saW5lam9pbjpyb3VuZDt9JiN4YTsJLnN0NXtmaWxsOiNGRkZGRkY7c3Ryb2tlOiNGRkZGRkY7c3Ryb2tlLXdpZHRoOjQ7c3Ryb2tlLWxpbmVjYXA6cm91bmQ7c3Ryb2tlLWxpbmVqb2luOnJvdW5kO3N0cm9rZS1taXRlcmxpbWl0OjEwO30mI3hhOwkuc3Q2e2ZpbGw6bm9uZTtzdHJva2U6I0ZGRkZGRjtzdHJva2Utd2lkdGg6NC4yMzMzO3N0cm9rZS1saW5lY2FwOnJvdW5kO3N0cm9rZS1saW5lam9pbjpyb3VuZDtzdHJva2UtbWl0ZXJsaW1pdDoxMDt9JiN4YTsJLnN0N3tmaWxsOm5vbmU7c3Ryb2tlOiNGRkZGRkY7c3Ryb2tlLXdpZHRoOjQ7c3Ryb2tlLWxpbmVjYXA6cm91bmQ7c3Ryb2tlLW1pdGVybGltaXQ6MTA7fSYjeGE7CS5zdDh7ZmlsbDojRkZGRkZGO3N0cm9rZTojRkZGRkZGO3N0cm9rZS13aWR0aDo0O3N0cm9rZS1taXRlcmxpbWl0OjEwO30mI3hhOwkuc3Q5e2ZpbGw6I0ZGRkZGRjtzdHJva2U6I0ZGRkZGRjtzdHJva2Utd2lkdGg6NDt9JiN4YTsJLnN0MTB7ZmlsbDpub25lO3N0cm9rZTojRkZGRkZGO3N0cm9rZS13aWR0aDo0O30mI3hhOwkuc3QxMXtmaWxsOiMyNjI2MjY7c3Ryb2tlOiNGRkZGRkY7c3Ryb2tlLXdpZHRoOjQuMjMzMzt9JiN4YTsJLnN0MTJ7ZmlsbC1ydWxlOmV2ZW5vZGQ7Y2xpcC1ydWxlOmV2ZW5vZGQ7ZmlsbDpub25lO3N0cm9rZTojRkZGRkZGO3N0cm9rZS13aWR0aDo0O3N0cm9rZS1taXRlcmxpbWl0OjEwO30mI3hhOwkuc3QxM3tmaWxsLXJ1bGU6ZXZlbm9kZDtjbGlwLXJ1bGU6ZXZlbm9kZDtmaWxsOiNGRkZGRkY7c3Ryb2tlOiNGRkZGRkY7c3Ryb2tlLXdpZHRoOjQ7fSYjeGE7CS5zdDE0e2ZpbGw6bm9uZTtzdHJva2U6I0ZGRkZGRjtzdHJva2Utd2lkdGg6NC4yMzMzO3N0cm9rZS1saW5lY2FwOnJvdW5kO3N0cm9rZS1saW5lam9pbjpyb3VuZDt9JiN4YTsJLnN0MTV7ZmlsbDpub25lO3N0cm9rZTojRkZGRkZGO3N0cm9rZS13aWR0aDo0O3N0cm9rZS1saW5lY2FwOnJvdW5kO30mI3hhOwkuc3QxNntmaWxsOiNGRkZGRkY7c3Ryb2tlOiNGRkZGRkY7c3Ryb2tlLW1pdGVybGltaXQ6MTA7fSYjeGE7CS5zdDE3e2ZpbGw6IzI2MjYyNjtzdHJva2U6I0ZGRkZGRjtzdHJva2Utd2lkdGg6NDtzdHJva2UtbWl0ZXJsaW1pdDoxMDt9JiN4YTsJLnN0MTh7ZmlsbDojRkZGRkZGO3N0cm9rZTojRkZGRkZGO3N0cm9rZS13aWR0aDo0O3N0cm9rZS1saW5lY2FwOnJvdW5kO3N0cm9rZS1saW5lam9pbjpyb3VuZDt9JiN4YTs8L3N0eWxlPiYjeGE7PHJlY3QgaGVpZ2h0PSIxMjAiIHdpZHRoPSIxMjAiIGNsYXNzPSJzdDAiLz4mI3hhOzxnPiYjeGE7CTxnPiYjeGE7CQk8cGF0aCBkPSJNNzEuNywxOS43VjQ4aDI4IiBjbGFzcz0ic3QxIi8+JiN4YTsJCTxwYXRoIGQ9Ik05MS4yLDM4LjVsNy41LDcuNmMxLjMsMS4zLDEuMywzLjEsMCw0LjNMOTEuMSw1OCIgY2xhc3M9InN0MSIvPiYjeGE7CTwvZz4mI3hhOwk8Zz4mI3hhOwkJPHBhdGggZD0iTTIwLDQ3LjhoMjguNHYtMjgiIGNsYXNzPSJzdDEiLz4mI3hhOwkJPHBhdGggZD0iTTM4LjgsMjguM2w3LjYtNy41YzEuMy0xLjMsMy4xLTEuMyw0LjMsMGw3LjcsNy42IiBjbGFzcz0ic3QxIi8+JiN4YTsJPC9nPiYjeGE7CTxnPiYjeGE7CQk8cGF0aCBkPSJNNDgsMTAwLjNWNzJIMjAiIGNsYXNzPSJzdDEiLz4mI3hhOwkJPHBhdGggZD0iTTI4LjUsODEuNUwyMSw3My45Yy0xLjMtMS4zLTEuMy0zLjEsMC00LjNsNy42LTcuNyIgY2xhc3M9InN0MSIvPiYjeGE7CTwvZz4mI3hhOwk8Zz4mI3hhOwkJPHBhdGggZD0iTTEwMCw3MS45SDcxLjZ2MjgiIGNsYXNzPSJzdDEiLz4mI3hhOwkJPHBhdGggZD0iTTgxLjIsOTEuNGwtNy42LDcuNWMtMS4zLDEuMy0zLjEsMS4zLTQuMywwbC03LjctNy42IiBjbGFzcz0ic3QxIi8+JiN4YTsJPC9nPiYjeGE7PC9nPiYjeGE7PC9zdmc+;" parent="1" vertex="1">
                        <mxGeometry x="1117" y="246" width="75" height="75" as="geometry"/>
                    </mxCell>
                </object>
                <object label="access2" id="clab-sites-access2">
                    <mxCell style="shape=image;imageAlign=center;imageVerticalAlign=middle;labelPosition=left;align=right;verticalLabelPosition=top;spacingLeft=0;verticalAlign=bottom;spacingTop=0;spacing=0;editableCssRules=\.st[0-2]$;labelBackgroundColor=none;aspect=fixed;imageAspect=0;image=data:image/svg+xml,PHN2ZyB4bWxuczp4bGluaz0iaHR0cDovL3d3dy53My5vcmcvMTk5OS94bGluayIgeG1sbnM9Imh0dHA6Ly93d3cudzMub3JnLzIwMDAvc3ZnIiB4bWw6c3BhY2U9InByZXNlcnZlIiBzdHlsZT0iZW5hYmxlLWJhY2tncm91bmQ6bmV3IDAgMCAxMjAgMTIwO2VkaXRhYmxlQ3NzUnVsZXM9Lio7IiB2aWV3Qm94PSIwIDAgMTIwIDEyMCIgeT0iMHB4IiB4PSIwcHgiIGlkPSJMYXllcl8xIiB2ZXJzaW9uPSIxLjEiPiYjeGE7PHN0eWxlIHR5cGU9InRleHQvY3NzIj4mI3hhOwkuc3Qwe2ZpbGw6IzAwMTEzNTt9JiN4YTsJLnN0MXtmaWxsOm5vbmU7c3Ryb2tlOiNGRkZGRkY7c3Ryb2tlLXdpZHRoOjQ7c3Ryb2tlLWxpbmVjYXA6cm91bmQ7c3Ryb2tlLWxpbmVqb2luOnJvdW5kO3N0cm9rZS1taXRlcmxpbWl0OjEwO30mI3hhOwkuc3Qye2ZpbGw6I0ZGRkZGRjt9JiN4YTsJLnN0M3tmaWxsOm5vbmU7c3Ryb2tlOiNGRkZGRkY7c3Ryb2tlLXdpZHRoOjQ7c3Ryb2tlLW1pdGVybGltaXQ6MTA7fSYjeGE7CS5zdDR7ZmlsbDpub25lO3N0cm9rZTojRkZGRkZGO3N0cm9rZS13aWR0aDo0O3N0cm9rZS1saW5lY2FwOnJvdW5kO3N0cm9rZS1saW5lam9pbjpyb3VuZDt9JiN4YTsJLnN0NXtmaWxsOiNGRkZGRkY7c3Ryb2tlOiNGRkZGRkY7c3Ryb2tlLXdpZHRoOjQ7c3Ryb2tlLWxpbmVjYXA6cm91bmQ7c3Ryb2tlLWxpbmVqb2luOnJvdW5kO3N0cm9rZS1taXRlcmxpbWl0OjEwO30mI3hhOwkuc3Q2e2ZpbGw6bm9uZTtzdHJva2U6I0ZGRkZGRjtzdHJva2Utd2lkdGg6NC4yMzMzO3N0cm9rZS1saW5lY2FwOnJvdW5kO3N0cm9rZS1saW5lam9pbjpyb3VuZDtzdHJva2UtbWl0ZXJsaW1pdDoxMDt9JiN4YTsJLnN0N3tmaWxsOm5vbmU7c3Ryb2tlOiNGRkZGRkY7c3Ryb2tlLXdpZHRoOjQ7c3Ryb2tlLWxpbmVjYXA6cm91bmQ7c3Ryb2tlLW1pdGVybGltaXQ6MTA7fSYjeGE7CS5zdDh7ZmlsbDojRkZGRkZGO3N0cm9rZTojRkZGRkZGO3N0cm9rZS13aWR0aDo0O3N0cm9rZS1taXRlcmxpbWl0OjEwO30mI3hhOwkuc3Q5e2ZpbGw6I0ZGRkZGRjtzdHJva2U6I0ZGRkZGRjtzdHJva2Utd2lkdGg6NDt9JiN4YTsJLnN0MTB7ZmlsbDpub25lO3N0cm9rZTojRkZGRkZGO3N0cm9rZS13aWR0aDo0O30mI3hhOwkuc3QxMXtmaWxsOiMyNjI2MjY7c3Ryb2tlOiNGRkZGRkY7c3Ryb2tlLXdpZHRoOjQuMjMzMzt9JiN4YTsJLnN0MTJ7ZmlsbC1ydWxlOmV2ZW5vZGQ7Y2xpcC1ydWxlOmV2ZW5vZGQ7ZmlsbDpub25lO3N0cm9rZTojRkZGRkZGO3N0cm9rZS13aWR0aDo0O3N0cm9rZS1taXRlcmxpbWl0OjEwO30mI3hhOwkuc3QxM3tmaWxsLXJ1bGU6ZXZlbm9kZDtjbGlwLXJ1bGU6ZXZlbm9kZDtmaWxsOiNGRkZGRkY7c3Ryb2tlOiNGRkZGRkY7c3Ryb2tlLXdpZHRoOjQ7fSYjeGE7CS5zdDE0e2ZpbGw6bm9uZTtzdHJva2U6I0ZGRkZGRjtzdHJva2Utd2lkdGg6NC4yMzMzO3N0cm9rZS1saW5lY2FwOnJvdW5kO3N0cm9rZS1saW5lam9pbjpyb3VuZDt9JiN4YTsJLnN0MTV7ZmlsbDpub25lO3N0cm9rZTojRkZGRkZGO3N0cm9rZS13aWR0aDo0O3N0cm9rZS1saW5lY2FwOnJvdW5kO30mI3hhOwkuc3QxNntmaWxsOiNGRkZGRkY7c3Ryb2tlOiNGRkZGRkY7c3Ryb2tlLW1pdGVybGltaXQ6MTA7fSYjeGE7CS5zdDE3e2ZpbGw6IzI2MjYyNjtzdHJva2U6I0ZGRkZGRjtzdHJva2Utd2lkdGg6NDtzdHJva2UtbWl0ZXJsaW1pdDoxMDt9JiN4YTsJLnN0MTh7ZmlsbDojRkZGRkZGO3N0cm9rZTojRkZGRkZGO3N0cm9rZS13aWR0aDo0O3N0cm9rZS1saW5lY2FwOnJvdW5kO3N0cm9rZS1saW5lam9pbjpyb3VuZDt9JiN4YTs8L3N0eWxlPiYjeGE7PHJlY3QgaGVpZ2h0PSIxMjAiIHdpZHRoPSIxMjAiIGNsYXNzPSJzdDAiLz4mI3hhOzxnPiYjeGE7CTxnPiYjeGE7CQk8cGF0aCBkPSJNNzEuNywxOS43VjQ4aDI4IiBjbGFzcz0ic3QxIi8+JiN4YTsJCTxwYXRoIGQ9Ik05MS4yLDM4LjVsNy41LDcuNmMxLjMsMS4zLDEuMywzLjEsMCw0LjNMOTEuMSw1OCIgY2xhc3M9InN0MSIvPiYjeGE7CTwvZz4mI3hhOwk8Zz4mI3hhOwkJPHBhdGggZD0iTTIwLDQ3LjhoMjguNHYtMjgiIGNsYXNzPSJzdDEiLz4mI3hhOwkJPHBhdGggZD0iTTM4LjgsMjguM2w3LjYtNy41YzEuMy0xLjMsMy4xLTEuMyw0LjMsMGw3LjcsNy42IiBjbGFzcz0ic3QxIi8+JiN4YTsJPC9nPiYjeGE7CTxnPiYjeGE7CQk8cGF0aCBkPSJNNDgsMTAwLjNWNzJIMjAiIGNsYXNzPSJzdDEiLz4mI3hhOwkJPHBhdGggZD0iTTI4LjUsODEuNUwyMSw3My45Yy0xLjMtMS4zLTEuMy0zLjEsMC00LjNsNy42LTcuNyIgY2xhc3M9InN0MSIvPiYjeGE7CTwvZz4mI3hhOwk8Zz4mI3hhOwkJPHBhdGggZD0iTTEwMCw3MS45SDcxLjZ2MjgiIGNsYXNzPSJzdDEiLz4mI3hhOwkJPHBhdGggZD0iTTgxLjIsOTEuNGwtNy42LDcuNWMtMS4zLDEuMy0zLjEsMS4zLTQuMywwbC03LjctNy42IiBjbGFzcz0ic3QxIi8+JiN4YTsJPC9nPiYjeGE7PC9nPiYjeGE7PC9zdmc+;" parent="1" vertex="1">
                        <mxGeometry x="1117" y="421" width="75" height="75" as="geometry"/>
                    </mxCell>
                </object>
                <object label="linux11" id="clab-sites-linux11">
                    <mxCell style="shape=image;imageAlign=center;imageVerticalAlign=middle;labelPosition=left;align=right;verticalLabelPosition=top;spacingLeft=0;verticalAlign=bottom;spacingTop=0;spacing=0;editableCssRules=\.st[0-2]$;labelBackgroundColor=none;aspect=fixed;imageAspect=0;image=data:image/svg+xml,PHN2ZyB4bWxuczp4bGluaz0iaHR0cDovL3d3dy53My5vcmcvMTk5OS94bGluayIgeG1sbnM9Imh0dHA6Ly93d3cudzMub3JnLzIwMDAvc3ZnIiB4bWw6c3BhY2U9InByZXNlcnZlIiBzdHlsZT0iZW5hYmxlLWJhY2tncm91bmQ6bmV3IDAgMCAxMjAgMTIwO2VkaXRhYmxlQ3NzUnVsZXM9Lio7IiB2aWV3Qm94PSIwIDAgMTIwIDEyMCIgeT0iMHB4IiB4PSIwcHgiIGlkPSJMYXllcl8xIiB2ZXJzaW9uPSIxLjEiPiYjeGE7PHN0eWxlIHR5cGU9InRleHQvY3NzIj4mI3hhOwkuc3Qwe2ZpbGw6IzAwMTEzNTt9JiN4YTsJLnN0MXtmaWxsOm5vbmU7c3Ryb2tlOiNGRkZGRkY7c3Ryb2tlLXdpZHRoOjQ7c3Ryb2tlLWxpbmVjYXA6cm91bmQ7c3Ryb2tlLWxpbmVqb2luOnJvdW5kO3N0cm9rZS1taXRlcmxpbWl0OjEwO30mI3hhOwkuc3Qye2ZpbGw6I0ZGRkZGRjt9JiN4YTsJLnN0M3tmaWxsOm5vbmU7c3Ryb2tlOiNGRkZGRkY7c3Ryb2tlLXdpZHRoOjQ7c3Ryb2tlLW1pdGVybGltaXQ6MTA7fSYjeGE7CS5zdDR7ZmlsbDpub25lO3N0cm9rZTojRkZGRkZGO3N0cm9rZS13aWR0aDo0O3N0cm9rZS1saW5lY2FwOnJvdW5kO3N0cm9rZS1saW5lam9pbjpyb3VuZDt9JiN4YTsJLnN0NXtmaWxsOiNGRkZGRkY7c3Ryb2tlOiNGRkZGRkY7c3Ryb2tlLXdpZHRoOjQ7c3Ryb2tlLWxpbmVjYXA6cm91bmQ7c3Ryb2tlLWxpbmVqb2luOnJvdW5kO3N0cm9rZS1taXRlcmxpbWl0OjEwO30mI3hhOwkuc3Q2e2ZpbGw6bm9uZTtzdHJva2U6I0ZGRkZGRjtzdHJva2Utd2lkdGg6NC4yMzMzO3N0cm9rZS1saW5lY2FwOnJvdW5kO3N0cm9rZS1saW5lam9pbjpyb3VuZDtzdHJva2UtbWl0ZXJsaW1pdDoxMDt9JiN4YTsJLnN0N3tmaWxsOm5vbmU7c3Ryb2tlOiNGRkZGRkY7c3Ryb2tlLXdpZHRoOjQ7c3Ryb2tlLWxpbmVjYXA6cm91bmQ7c3Ryb2tlLW1pdGVybGltaXQ6MTA7fSYjeGE7CS5zdDh7ZmlsbDojRkZGRkZGO3N0cm9rZTojRkZGRkZGO3N0cm9rZS13aWR0aDo0O3N0cm9rZS1taXRlcmxpbWl0OjEwO30mI3hhOwkuc3Q5e2ZpbGw6I0ZGRkZGRjtzdHJva2U6I0ZGRkZGRjtzdHJva2Utd2lkdGg6NDt9JiN4YTsJLnN0MTB7ZmlsbDpub25lO3N0cm9rZTojRkZGRkZGO3N0cm9rZS13aWR0aDo0O30mI3hhOwkuc3QxMXtmaWxsOiMyNjI2MjY7c3Ryb2tlOiNGRkZGRkY7c3Ryb2tlLXdpZHRoOjQuMjMzMzt9JiN4YTsJLnN0MTJ7ZmlsbC1ydWxlOmV2ZW5vZGQ7Y2xpcC1ydWxlOmV2ZW5vZGQ7ZmlsbDpub25lO3N0cm9rZTojRkZGRkZGO3N0cm9rZS13aWR0aDo0O3N0cm9rZS1taXRlcmxpbWl0OjEwO30mI3hhOwkuc3QxM3tmaWxsLXJ1bGU6ZXZlbm9kZDtjbGlwLXJ1bGU6ZXZlbm9kZDtmaWxsOiNGRkZGRkY7c3Ryb2tlOiNGRkZGRkY7c3Ryb2tlLXdpZHRoOjQ7fSYjeGE7CS5zdDE0e2ZpbGw6bm9uZTtzdHJva2U6I0ZGRkZGRjtzdHJva2Utd2lkdGg6NC4yMzMzO3N0cm9rZS1saW5lY2FwOnJvdW5kO3N0cm9rZS1saW5lam9pbjpyb3VuZDt9JiN4YTsJLnN0MTV7ZmlsbDpub25lO3N0cm9rZTojRkZGRkZGO3N0cm9rZS13aWR0aDo0O3N0cm9rZS1saW5lY2FwOnJvdW5kO30mI3hhOwkuc3QxNntmaWxsOiNGRkZGRkY7c3Ryb2tlOiNGRkZGRkY7c3Ryb2tlLW1pdGVybGltaXQ6MTA7fSYjeGE7CS5zdDE3e2ZpbGw6IzI2MjYyNjtzdHJva2U6I0ZGRkZGRjtzdHJva2Utd2lkdGg6NDtzdHJva2UtbWl0ZXJsaW1pdDoxMDt9JiN4YTsJLnN0MTh7ZmlsbDojRkZGRkZGO3N0cm9rZTojRkZGRkZGO3N0cm9rZS13aWR0aDo0O3N0cm9rZS1saW5lY2FwOnJvdW5kO3N0cm9rZS1saW5lam9pbjpyb3VuZDt9JiN4YTs8L3N0eWxlPiYjeGE7PHJlY3QgaGVpZ2h0PSIxMjAiIHdpZHRoPSIxMjAiIGNsYXNzPSJzdDAiLz4mI3hhOzxnPiYjeGE7CTxnPiYjeGE7CQk8cGF0aCBkPSJNNzEuNywxOS43VjQ4aDI4IiBjbGFzcz0ic3QxIi8+JiN4YTsJCTxwYXRoIGQ9Ik05MS4yLDM4LjVsNy41LDcuNmMxLjMsMS4zLDEuMywzLjEsMCw0LjNMOTEuMSw1OCIgY2xhc3M9InN0MSIvPiYjeGE7CTwvZz4mI3hhOwk8Zz4mI3hhOwkJPHBhdGggZD0iTTIwLDQ3LjhoMjguNHYtMjgiIGNsYXNzPSJzdDEiLz4mI3hhOwkJPHBhdGggZD0iTTM4LjgsMjguM2w3LjYtNy41YzEuMy0xLjMsMy4xLTEuMyw0LjMsMGw3LjcsNy42IiBjbGFzcz0ic3QxIi8+JiN4YTsJPC9nPiYjeGE7CTxnPiYjeGE7CQk8cGF0aCBkPSJNNDgsMTAwLjNWNzJIMjAiIGNsYXNzPSJzdDEiLz4mI3hhOwkJPHBhdGggZD0iTTI4LjUsODEuNUwyMSw3My45Yy0xLjMtMS4zLTEuMy0zLjEsMC00LjNsNy42LTcuNyIgY2xhc3M9InN0MSIvPiYjeGE7CTwvZz4mI3hhOwk8Zz4mI3hhOwkJPHBhdGggZD0iTTEwMCw3MS45SDcxLjZ2MjgiIGNsYXNzPSJzdDEiLz4mI3hhOwkJPHBhdGggZD0iTTgxLjIsOTEuNGwtNy42LDcuNWMtMS4zLDEuMy0zLjEsMS4zLTQuMywwbC03LjctNy42IiBjbGFzcz0ic3QxIi8+JiN4YTsJPC9nPiYjeGE7PC9nPiYjeGE7PC9zdmc+;" parent="1" vertex="1">
                        <mxGeometry x="555" y="639" width="75" height="75" as="geometry"/>
                    </mxCell>
                </object>
                <object label="linux12" id="clab-sites-linux12">
                    <mxCell style="shape=image;imageAlign=center;imageVerticalAlign=middle;labelPosition=left;align=right;verticalLabelPosition=top;spacingLeft=0;verticalAlign=bottom;spacingTop=0;spacing=0;editableCssRules=\.st[0-2]$;labelBackgroundColor=none;aspect=fixed;imageAspect=0;image=data:image/svg+xml,PHN2ZyB4bWxuczp4bGluaz0iaHR0cDovL3d3dy53My5vcmcvMTk5OS94bGluayIgeG1sbnM9Imh0dHA6Ly93d3cudzMub3JnLzIwMDAvc3ZnIiB4bWw6c3BhY2U9InByZXNlcnZlIiBzdHlsZT0iZW5hYmxlLWJhY2tncm91bmQ6bmV3IDAgMCAxMjAgMTIwO2VkaXRhYmxlQ3NzUnVsZXM9Lio7IiB2aWV3Qm94PSIwIDAgMTIwIDEyMCIgeT0iMHB4IiB4PSIwcHgiIGlkPSJMYXllcl8xIiB2ZXJzaW9uPSIxLjEiPiYjeGE7PHN0eWxlIHR5cGU9InRleHQvY3NzIj4mI3hhOwkuc3Qwe2ZpbGw6IzAwMTEzNTt9JiN4YTsJLnN0MXtmaWxsOm5vbmU7c3Ryb2tlOiNGRkZGRkY7c3Ryb2tlLXdpZHRoOjQ7c3Ryb2tlLWxpbmVjYXA6cm91bmQ7c3Ryb2tlLWxpbmVqb2luOnJvdW5kO3N0cm9rZS1taXRlcmxpbWl0OjEwO30mI3hhOwkuc3Qye2ZpbGw6I0ZGRkZGRjt9JiN4YTsJLnN0M3tmaWxsOm5vbmU7c3Ryb2tlOiNGRkZGRkY7c3Ryb2tlLXdpZHRoOjQ7c3Ryb2tlLW1pdGVybGltaXQ6MTA7fSYjeGE7CS5zdDR7ZmlsbDpub25lO3N0cm9rZTojRkZGRkZGO3N0cm9rZS13aWR0aDo0O3N0cm9rZS1saW5lY2FwOnJvdW5kO3N0cm9rZS1saW5lam9pbjpyb3VuZDt9JiN4YTsJLnN0NXtmaWxsOiNGRkZGRkY7c3Ryb2tlOiNGRkZGRkY7c3Ryb2tlLXdpZHRoOjQ7c3Ryb2tlLWxpbmVjYXA6cm91bmQ7c3Ryb2tlLWxpbmVqb2luOnJvdW5kO3N0cm9rZS1taXRlcmxpbWl0OjEwO30mI3hhOwkuc3Q2e2ZpbGw6bm9uZTtzdHJva2U6I0ZGRkZGRjtzdHJva2Utd2lkdGg6NC4yMzMzO3N0cm9rZS1saW5lY2FwOnJvdW5kO3N0cm9rZS1saW5lam9pbjpyb3VuZDtzdHJva2UtbWl0ZXJsaW1pdDoxMDt9JiN4YTsJLnN0N3tmaWxsOm5vbmU7c3Ryb2tlOiNGRkZGRkY7c3Ryb2tlLXdpZHRoOjQ7c3Ryb2tlLWxpbmVjYXA6cm91bmQ7c3Ryb2tlLW1pdGVybGltaXQ6MTA7fSYjeGE7CS5zdDh7ZmlsbDojRkZGRkZGO3N0cm9rZTojRkZGRkZGO3N0cm9rZS13aWR0aDo0O3N0cm9rZS1taXRlcmxpbWl0OjEwO30mI3hhOwkuc3Q5e2ZpbGw6I0ZGRkZGRjtzdHJva2U6I0ZGRkZGRjtzdHJva2Utd2lkdGg6NDt9JiN4YTsJLnN0MTB7ZmlsbDpub25lO3N0cm9rZTojRkZGRkZGO3N0cm9rZS13aWR0aDo0O30mI3hhOwkuc3QxMXtmaWxsOiMyNjI2MjY7c3Ryb2tlOiNGRkZGRkY7c3Ryb2tlLXdpZHRoOjQuMjMzMzt9JiN4YTsJLnN0MTJ7ZmlsbC1ydWxlOmV2ZW5vZGQ7Y2xpcC1ydWxlOmV2ZW5vZGQ7ZmlsbDpub25lO3N0cm9rZTojRkZGRkZGO3N0cm9rZS13aWR0aDo0O3N0cm9rZS1taXRlcmxpbWl0OjEwO30mI3hhOwkuc3QxM3tmaWxsLXJ1bGU6ZXZlbm9kZDtjbGlwLXJ1bGU6ZXZlbm9kZDtmaWxsOiNGRkZGRkY7c3Ryb2tlOiNGRkZGRkY7c3Ryb2tlLXdpZHRoOjQ7fSYjeGE7CS5zdDE0e2ZpbGw6bm9uZTtzdHJva2U6I0ZGRkZGRjtzdHJva2Utd2lkdGg6NC4yMzMzO3N0cm9rZS1saW5lY2FwOnJvdW5kO3N0cm9rZS1saW5lam9pbjpyb3VuZDt9JiN4YTsJLnN0MTV7ZmlsbDpub25lO3N0cm9rZTojRkZGRkZGO3N0cm9rZS13aWR0aDo0O3N0cm9rZS1saW5lY2FwOnJvdW5kO30mI3hhOwkuc3QxNntmaWxsOiNGRkZGRkY7c3Ryb2tlOiNGRkZGRkY7c3Ryb2tlLW1pdGVybGltaXQ6MTA7fSYjeGE7CS5zdDE3e2ZpbGw6IzI2MjYyNjtzdHJva2U6I0ZGRkZGRjtzdHJva2Utd2lkdGg6NDtzdHJva2UtbWl0ZXJsaW1pdDoxMDt9JiN4YTsJLnN0MTh7ZmlsbDojRkZGRkZGO3N0cm9rZTojRkZGRkZGO3N0cm9rZS13aWR0aDo0O3N0cm9rZS1saW5lY2FwOnJvdW5kO3N0cm9rZS1saW5lam9pbjpyb3VuZDt9JiN4YTs8L3N0eWxlPiYjeGE7PHJlY3QgaGVpZ2h0PSIxMjAiIHdpZHRoPSIxMjAiIGNsYXNzPSJzdDAiLz4mI3hhOzxnPiYjeGE7CTxnPiYjeGE7CQk8cGF0aCBkPSJNNzEuNywxOS43VjQ4aDI4IiBjbGFzcz0ic3QxIi8+JiN4YTsJCTxwYXRoIGQ9Ik05MS4yLDM4LjVsNy41LDcuNmMxLjMsMS4zLDEuMywzLjEsMCw0LjNMOTEuMSw1OCIgY2xhc3M9InN0MSIvPiYjeGE7CTwvZz4mI3hhOwk8Zz4mI3hhOwkJPHBhdGggZD0iTTIwLDQ3LjhoMjguNHYtMjgiIGNsYXNzPSJzdDEiLz4mI3hhOwkJPHBhdGggZD0iTTM4LjgsMjguM2w3LjYtNy41YzEuMy0xLjMsMy4xLTEuMyw0LjMsMGw3LjcsNy42IiBjbGFzcz0ic3QxIi8+JiN4YTsJPC9nPiYjeGE7CTxnPiYjeGE7CQk8cGF0aCBkPSJNNDgsMTAwLjNWNzJIMjAiIGNsYXNzPSJzdDEiLz4mI3hhOwkJPHBhdGggZD0iTTI4LjUsODEuNUwyMSw3My45Yy0xLjMtMS4zLTEuMy0zLjEsMC00LjNsNy42LTcuNyIgY2xhc3M9InN0MSIvPiYjeGE7CTwvZz4mI3hhOwk8Zz4mI3hhOwkJPHBhdGggZD0iTTEwMCw3MS45SDcxLjZ2MjgiIGNsYXNzPSJzdDEiLz4mI3hhOwkJPHBhdGggZD0iTTgxLjIsOTEuNGwtNy42LDcuNWMtMS4zLDEuMy0zLjEsMS4zLTQuMywwbC03LjctNy42IiBjbGFzcz0ic3QxIi8+JiN4YTsJPC9nPiYjeGE7PC9nPiYjeGE7PC9zdmc+;" parent="1" vertex="1">
                        <mxGeometry x="361" y="639" width="75" height="75" as="geometry"/>
                    </mxCell>
                </object>
                <object label="linux13" id="clab-sites-linux13">
                    <mxCell style="shape=image;imageAlign=center;imageVerticalAlign=middle;labelPosition=left;align=right;verticalLabelPosition=top;spacingLeft=0;verticalAlign=bottom;spacingTop=0;spacing=0;editableCssRules=\.st[0-2]$;labelBackgroundColor=none;aspect=fixed;imageAspect=0;image=data:image/svg+xml,PHN2ZyB4bWxuczp4bGluaz0iaHR0cDovL3d3dy53My5vcmcvMTk5OS94bGluayIgeG1sbnM9Imh0dHA6Ly93d3cudzMub3JnLzIwMDAvc3ZnIiB4bWw6c3BhY2U9InByZXNlcnZlIiBzdHlsZT0iZW5hYmxlLWJhY2tncm91bmQ6bmV3IDAgMCAxMjAgMTIwO2VkaXRhYmxlQ3NzUnVsZXM9Lio7IiB2aWV3Qm94PSIwIDAgMTIwIDEyMCIgeT0iMHB4IiB4PSIwcHgiIGlkPSJMYXllcl8xIiB2ZXJzaW9uPSIxLjEiPiYjeGE7PHN0eWxlIHR5cGU9InRleHQvY3NzIj4mI3hhOwkuc3Qwe2ZpbGw6IzAwMTEzNTt9JiN4YTsJLnN0MXtmaWxsOm5vbmU7c3Ryb2tlOiNGRkZGRkY7c3Ryb2tlLXdpZHRoOjQ7c3Ryb2tlLWxpbmVjYXA6cm91bmQ7c3Ryb2tlLWxpbmVqb2luOnJvdW5kO3N0cm9rZS1taXRlcmxpbWl0OjEwO30mI3hhOwkuc3Qye2ZpbGw6I0ZGRkZGRjt9JiN4YTsJLnN0M3tmaWxsOm5vbmU7c3Ryb2tlOiNGRkZGRkY7c3Ryb2tlLXdpZHRoOjQ7c3Ryb2tlLW1pdGVybGltaXQ6MTA7fSYjeGE7CS5zdDR7ZmlsbDpub25lO3N0cm9rZTojRkZGRkZGO3N0cm9rZS13aWR0aDo0O3N0cm9rZS1saW5lY2FwOnJvdW5kO3N0cm9rZS1saW5lam9pbjpyb3VuZDt9JiN4YTsJLnN0NXtmaWxsOiNGRkZGRkY7c3Ryb2tlOiNGRkZGRkY7c3Ryb2tlLXdpZHRoOjQ7c3Ryb2tlLWxpbmVjYXA6cm91bmQ7c3Ryb2tlLWxpbmVqb2luOnJvdW5kO3N0cm9rZS1taXRlcmxpbWl0OjEwO30mI3hhOwkuc3Q2e2ZpbGw6bm9uZTtzdHJva2U6I0ZGRkZGRjtzdHJva2Utd2lkdGg6NC4yMzMzO3N0cm9rZS1saW5lY2FwOnJvdW5kO3N0cm9rZS1saW5lam9pbjpyb3VuZDtzdHJva2UtbWl0ZXJsaW1pdDoxMDt9JiN4YTsJLnN0N3tmaWxsOm5vbmU7c3Ryb2tlOiNGRkZGRkY7c3Ryb2tlLXdpZHRoOjQ7c3Ryb2tlLWxpbmVjYXA6cm91bmQ7c3Ryb2tlLW1pdGVybGltaXQ6MTA7fSYjeGE7CS5zdDh7ZmlsbDojRkZGRkZGO3N0cm9rZTojRkZGRkZGO3N0cm9rZS13aWR0aDo0O3N0cm9rZS1taXRlcmxpbWl0OjEwO30mI3hhOwkuc3Q5e2ZpbGw6I0ZGRkZGRjtzdHJva2U6I0ZGRkZGRjtzdHJva2Utd2lkdGg6NDt9JiN4YTsJLnN0MTB7ZmlsbDpub25lO3N0cm9rZTojRkZGRkZGO3N0cm9rZS13aWR0aDo0O30mI3hhOwkuc3QxMXtmaWxsOiMyNjI2MjY7c3Ryb2tlOiNGRkZGRkY7c3Ryb2tlLXdpZHRoOjQuMjMzMzt9JiN4YTsJLnN0MTJ7ZmlsbC1ydWxlOmV2ZW5vZGQ7Y2xpcC1ydWxlOmV2ZW5vZGQ7ZmlsbDpub25lO3N0cm9rZTojRkZGRkZGO3N0cm9rZS13aWR0aDo0O3N0cm9rZS1taXRlcmxpbWl0OjEwO30mI3hhOwkuc3QxM3tmaWxsLXJ1bGU6ZXZlbm9kZDtjbGlwLXJ1bGU6ZXZlbm9kZDtmaWxsOiNGRkZGRkY7c3Ryb2tlOiNGRkZGRkY7c3Ryb2tlLXdpZHRoOjQ7fSYjeGE7CS5zdDE0e2ZpbGw6bm9uZTtzdHJva2U6I0ZGRkZGRjtzdHJva2Utd2lkdGg6NC4yMzMzO3N0cm9rZS1saW5lY2FwOnJvdW5kO3N0cm9rZS1saW5lam9pbjpyb3VuZDt9JiN4YTsJLnN0MTV7ZmlsbDpub25lO3N0cm9rZTojRkZGRkZGO3N0cm9rZS13aWR0aDo0O3N0cm9rZS1saW5lY2FwOnJvdW5kO30mI3hhOwkuc3QxNntmaWxsOiNGRkZGRkY7c3Ryb2tlOiNGRkZGRkY7c3Ryb2tlLW1pdGVybGltaXQ6MTA7fSYjeGE7CS5zdDE3e2ZpbGw6IzI2MjYyNjtzdHJva2U6I0ZGRkZGRjtzdHJva2Utd2lkdGg6NDtzdHJva2UtbWl0ZXJsaW1pdDoxMDt9JiN4YTsJLnN0MTh7ZmlsbDojRkZGRkZGO3N0cm9rZTojRkZGRkZGO3N0cm9rZS13aWR0aDo0O3N0cm9rZS1saW5lY2FwOnJvdW5kO3N0cm9rZS1saW5lam9pbjpyb3VuZDt9JiN4YTs8L3N0eWxlPiYjeGE7PHJlY3QgaGVpZ2h0PSIxMjAiIHdpZHRoPSIxMjAiIGNsYXNzPSJzdDAiLz4mI3hhOzxnPiYjeGE7CTxnPiYjeGE7CQk8cGF0aCBkPSJNNzEuNywxOS43VjQ4aDI4IiBjbGFzcz0ic3QxIi8+JiN4YTsJCTxwYXRoIGQ9Ik05MS4yLDM4LjVsNy41LDcuNmMxLjMsMS4zLDEuMywzLjEsMCw0LjNMOTEuMSw1OCIgY2xhc3M9InN0MSIvPiYjeGE7CTwvZz4mI3hhOwk8Zz4mI3hhOwkJPHBhdGggZD0iTTIwLDQ3LjhoMjguNHYtMjgiIGNsYXNzPSJzdDEiLz4mI3hhOwkJPHBhdGggZD0iTTM4LjgsMjguM2w3LjYtNy41YzEuMy0xLjMsMy4xLTEuMyw0LjMsMGw3LjcsNy42IiBjbGFzcz0ic3QxIi8+JiN4YTsJPC9nPiYjeGE7CTxnPiYjeGE7CQk8cGF0aCBkPSJNNDgsMTAwLjNWNzJIMjAiIGNsYXNzPSJzdDEiLz4mI3hhOwkJPHBhdGggZD0iTTI4LjUsODEuNUwyMSw3My45Yy0xLjMtMS4zLTEuMy0zLjEsMC00LjNsNy42LTcuNyIgY2xhc3M9InN0MSIvPiYjeGE7CTwvZz4mI3hhOwk8Zz4mI3hhOwkJPHBhdGggZD0iTTEwMCw3MS45SDcxLjZ2MjgiIGNsYXNzPSJzdDEiLz4mI3hhOwkJPHBhdGggZD0iTTgxLjIsOTEuNGwtNy42LDcuNWMtMS4zLDEuMy0zLjEsMS4zLTQuMywwbC03LjctNy42IiBjbGFzcz0ic3QxIi8+JiN4YTsJPC9nPiYjeGE7PC9nPiYjeGE7PC9zdmc+;" parent="1" vertex="1">
                        <mxGeometry x="106" y="628" width="75" height="75" as="geometry"/>
                    </mxCell>
                </object>
                <object label="iot11" id="clab-sites-iot11">
                    <mxCell style="shape=image;imageAlign=center;imageVerticalAlign=middle;labelPosition=left;align=right;verticalLabelPosition=top;spacingLeft=0;verticalAlign=bottom;spacingTop=0;spacing=0;editableCssRules=\.st[0-2]$;labelBackgroundColor=none;aspect=fixed;imageAspect=0;image=data:image/svg+xml,PHN2ZyB4bWxuczp4bGluaz0iaHR0cDovL3d3dy53My5vcmcvMTk5OS94bGluayIgeG1sbnM9Imh0dHA6Ly93d3cudzMub3JnLzIwMDAvc3ZnIiB4bWw6c3BhY2U9InByZXNlcnZlIiBzdHlsZT0iZW5hYmxlLWJhY2tncm91bmQ6bmV3IDAgMCAxMjAgMTIwO2VkaXRhYmxlQ3NzUnVsZXM9Lio7IiB2aWV3Qm94PSIwIDAgMTIwIDEyMCIgeT0iMHB4IiB4PSIwcHgiIGlkPSJMYXllcl8xIiB2ZXJzaW9uPSIxLjEiPiYjeGE7PHN0eWxlIHR5cGU9InRleHQvY3NzIj4mI3hhOwkuc3Qwe2ZpbGw6IzAwMTEzNTt9JiN4YTsJLnN0MXtmaWxsOm5vbmU7c3Ryb2tlOiNGRkZGRkY7c3Ryb2tlLXdpZHRoOjQ7c3Ryb2tlLWxpbmVjYXA6cm91bmQ7c3Ryb2tlLWxpbmVqb2luOnJvdW5kO3N0cm9rZS1taXRlcmxpbWl0OjEwO30mI3hhOwkuc3Qye2ZpbGw6I0ZGRkZGRjt9JiN4YTsJLnN0M3tmaWxsOm5vbmU7c3Ryb2tlOiNGRkZGRkY7c3Ryb2tlLXdpZHRoOjQ7c3Ryb2tlLW1pdGVybGltaXQ6MTA7fSYjeGE7CS5zdDR7ZmlsbDpub25lO3N0cm9rZTojRkZGRkZGO3N0cm9rZS13aWR0aDo0O3N0cm9rZS1saW5lY2FwOnJvdW5kO3N0cm9rZS1saW5lam9pbjpyb3VuZDt9JiN4YTsJLnN0NXtmaWxsOiNGRkZGRkY7c3Ryb2tlOiNGRkZGRkY7c3Ryb2tlLXdpZHRoOjQ7c3Ryb2tlLWxpbmVjYXA6cm91bmQ7c3Ryb2tlLWxpbmVqb2luOnJvdW5kO3N0cm9rZS1taXRlcmxpbWl0OjEwO30mI3hhOwkuc3Q2e2ZpbGw6bm9uZTtzdHJva2U6I0ZGRkZGRjtzdHJva2Utd2lkdGg6NC4yMzMzO3N0cm9rZS1saW5lY2FwOnJvdW5kO3N0cm9rZS1saW5lam9pbjpyb3VuZDtzdHJva2UtbWl0ZXJsaW1pdDoxMDt9JiN4YTsJLnN0N3tmaWxsOm5vbmU7c3Ryb2tlOiNGRkZGRkY7c3Ryb2tlLXdpZHRoOjQ7c3Ryb2tlLWxpbmVjYXA6cm91bmQ7c3Ryb2tlLW1pdGVybGltaXQ6MTA7fSYjeGE7CS5zdDh7ZmlsbDojRkZGRkZGO3N0cm9rZTojRkZGRkZGO3N0cm9rZS13aWR0aDo0O3N0cm9rZS1taXRlcmxpbWl0OjEwO30mI3hhOwkuc3Q5e2ZpbGw6I0ZGRkZGRjtzdHJva2U6I0ZGRkZGRjtzdHJva2Utd2lkdGg6NDt9JiN4YTsJLnN0MTB7ZmlsbDpub25lO3N0cm9rZTojRkZGRkZGO3N0cm9rZS13aWR0aDo0O30mI3hhOwkuc3QxMXtmaWxsOiMyNjI2MjY7c3Ryb2tlOiNGRkZGRkY7c3Ryb2tlLXdpZHRoOjQuMjMzMzt9JiN4YTsJLnN0MTJ7ZmlsbC1ydWxlOmV2ZW5vZGQ7Y2xpcC1ydWxlOmV2ZW5vZGQ7ZmlsbDpub25lO3N0cm9rZTojRkZGRkZGO3N0cm9rZS13aWR0aDo0O3N0cm9rZS1taXRlcmxpbWl0OjEwO30mI3hhOwkuc3QxM3tmaWxsLXJ1bGU6ZXZlbm9kZDtjbGlwLXJ1bGU6ZXZlbm9kZDtmaWxsOiNGRkZGRkY7c3Ryb2tlOiNGRkZGRkY7c3Ryb2tlLXdpZHRoOjQ7fSYjeGE7CS5zdDE0e2ZpbGw6bm9uZTtzdHJva2U6I0ZGRkZGRjtzdHJva2Utd2lkdGg6NC4yMzMzO3N0cm9rZS1saW5lY2FwOnJvdW5kO3N0cm9rZS1saW5lam9pbjpyb3VuZDt9JiN4YTsJLnN0MTV7ZmlsbDpub25lO3N0cm9rZTojRkZGRkZGO3N0cm9rZS13aWR0aDo0O3N0cm9rZS1saW5lY2FwOnJvdW5kO30mI3hhOwkuc3QxNntmaWxsOiNGRkZGRkY7c3Ryb2tlOiNGRkZGRkY7c3Ryb2tlLW1pdGVybGltaXQ6MTA7fSYjeGE7CS5zdDE3e2ZpbGw6IzI2MjYyNjtzdHJva2U6I0ZGRkZGRjtzdHJva2Utd2lkdGg6NDtzdHJva2UtbWl0ZXJsaW1pdDoxMDt9JiN4YTsJLnN0MTh7ZmlsbDojRkZGRkZGO3N0cm9rZTojRkZGRkZGO3N0cm9rZS13aWR0aDo0O3N0cm9rZS1saW5lY2FwOnJvdW5kO3N0cm9rZS1saW5lam9pbjpyb3VuZDt9JiN4YTs8L3N0eWxlPiYjeGE7PHJlY3QgaGVpZ2h0PSIxMjAiIHdpZHRoPSIxMjAiIGNsYXNzPSJzdDAiLz4mI3hhOzxnPiYjeGE7CTxnPiYjeGE7CQk8cGF0aCBkPSJNNzEuNywxOS43VjQ4aDI4IiBjbGFzcz0ic3QxIi8+JiN4YTsJCTxwYXRoIGQ9Ik05MS4yLDM4LjVsNy41LDcuNmMxLjMsMS4zLDEuMywzLjEsMCw0LjNMOTEuMSw1OCIgY2xhc3M9InN0MSIvPiYjeGE7CTwvZz4mI3hhOwk8Zz4mI3hhOwkJPHBhdGggZD0iTTIwLDQ3LjhoMjguNHYtMjgiIGNsYXNzPSJzdDEiLz4mI3hhOwkJPHBhdGggZD0iTTM4LjgsMjguM2w3LjYtNy41YzEuMy0xLjMsMy4xLTEuMyw0LjMsMGw3LjcsNy42IiBjbGFzcz0ic3QxIi8+JiN4YTsJPC9nPiYjeGE7CTxnPiYjeGE7CQk8cGF0aCBkPSJNNDgsMTAwLjNWNzJIMjAiIGNsYXNzPSJzdDEiLz4mI3hhOwkJPHBhdGggZD0iTTI4LjUsODEuNUwyMSw3My45Yy0xLjMtMS4zLTEuMy0zLjEsMC00LjNsNy42LTcuNyIgY2xhc3M9InN0MSIvPiYjeGE7CTwvZz4mI3hhOwk8Zz4mI3hhOwkJPHBhdGggZD0iTTEwMCw3MS45SDcxLjZ2MjgiIGNsYXNzPSJzdDEiLz4mI3hhOwkJPHBhdGggZD0iTTgxLjIsOTEuNGwtNy42LDcuNWMtMS4zLDEuMy0zLjEsMS4zLTQuMywwbC03LjctNy42IiBjbGFzcz0ic3QxIi8+JiN4YTsJPC9nPiYjeGE7PC9nPiYjeGE7PC9zdmc+;" parent="1" vertex="1">
                        <mxGeometry x="192" y="795" width="75" height="75" as="geometry"/>
                    </mxCell>
                </object>
                <object label="iot12" id="clab-sites-iot12">
                    <mxCell style="shape=image;imageAlign=center;imageVerticalAlign=middle;labelPosition=left;align=right;verticalLabelPosition=top;spacingLeft=0;verticalAlign=bottom;spacingTop=0;spacing=0;editableCssRules=\.st[0-2]$;labelBackgroundColor=none;aspect=fixed;imageAspect=0;image=data:image/svg+xml,PHN2ZyB4bWxuczp4bGluaz0iaHR0cDovL3d3dy53My5vcmcvMTk5OS94bGluayIgeG1sbnM9Imh0dHA6Ly93d3cudzMub3JnLzIwMDAvc3ZnIiB4bWw6c3BhY2U9InByZXNlcnZlIiBzdHlsZT0iZW5hYmxlLWJhY2tncm91bmQ6bmV3IDAgMCAxMjAgMTIwO2VkaXRhYmxlQ3NzUnVsZXM9Lio7IiB2aWV3Qm94PSIwIDAgMTIwIDEyMCIgeT0iMHB4IiB4PSIwcHgiIGlkPSJMYXllcl8xIiB2ZXJzaW9uPSIxLjEiPiYjeGE7PHN0eWxlIHR5cGU9InRleHQvY3NzIj4mI3hhOwkuc3Qwe2ZpbGw6IzAwMTEzNTt9JiN4YTsJLnN0MXtmaWxsOm5vbmU7c3Ryb2tlOiNGRkZGRkY7c3Ryb2tlLXdpZHRoOjQ7c3Ryb2tlLWxpbmVjYXA6cm91bmQ7c3Ryb2tlLWxpbmVqb2luOnJvdW5kO3N0cm9rZS1taXRlcmxpbWl0OjEwO30mI3hhOwkuc3Qye2ZpbGw6I0ZGRkZGRjt9JiN4YTsJLnN0M3tmaWxsOm5vbmU7c3Ryb2tlOiNGRkZGRkY7c3Ryb2tlLXdpZHRoOjQ7c3Ryb2tlLW1pdGVybGltaXQ6MTA7fSYjeGE7CS5zdDR7ZmlsbDpub25lO3N0cm9rZTojRkZGRkZGO3N0cm9rZS13aWR0aDo0O3N0cm9rZS1saW5lY2FwOnJvdW5kO3N0cm9rZS1saW5lam9pbjpyb3VuZDt9JiN4YTsJLnN0NXtmaWxsOiNGRkZGRkY7c3Ryb2tlOiNGRkZGRkY7c3Ryb2tlLXdpZHRoOjQ7c3Ryb2tlLWxpbmVjYXA6cm91bmQ7c3Ryb2tlLWxpbmVqb2luOnJvdW5kO3N0cm9rZS1taXRlcmxpbWl0OjEwO30mI3hhOwkuc3Q2e2ZpbGw6bm9uZTtzdHJva2U6I0ZGRkZGRjtzdHJva2Utd2lkdGg6NC4yMzMzO3N0cm9rZS1saW5lY2FwOnJvdW5kO3N0cm9rZS1saW5lam9pbjpyb3VuZDtzdHJva2UtbWl0ZXJsaW1pdDoxMDt9JiN4YTsJLnN0N3tmaWxsOm5vbmU7c3Ryb2tlOiNGRkZGRkY7c3Ryb2tlLXdpZHRoOjQ7c3Ryb2tlLWxpbmVjYXA6cm91bmQ7c3Ryb2tlLW1pdGVybGltaXQ6MTA7fSYjeGE7CS5zdDh7ZmlsbDojRkZGRkZGO3N0cm9rZTojRkZGRkZGO3N0cm9rZS13aWR0aDo0O3N0cm9rZS1taXRlcmxpbWl0OjEwO30mI3hhOwkuc3Q5e2ZpbGw6I0ZGRkZGRjtzdHJva2U6I0ZGRkZGRjtzdHJva2Utd2lkdGg6NDt9JiN4YTsJLnN0MTB7ZmlsbDpub25lO3N0cm9rZTojRkZGRkZGO3N0cm9rZS13aWR0aDo0O30mI3hhOwkuc3QxMXtmaWxsOiMyNjI2MjY7c3Ryb2tlOiNGRkZGRkY7c3Ryb2tlLXdpZHRoOjQuMjMzMzt9JiN4YTsJLnN0MTJ7ZmlsbC1ydWxlOmV2ZW5vZGQ7Y2xpcC1ydWxlOmV2ZW5vZGQ7ZmlsbDpub25lO3N0cm9rZTojRkZGRkZGO3N0cm9rZS13aWR0aDo0O3N0cm9rZS1taXRlcmxpbWl0OjEwO30mI3hhOwkuc3QxM3tmaWxsLXJ1bGU6ZXZlbm9kZDtjbGlwLXJ1bGU6ZXZlbm9kZDtmaWxsOiNGRkZGRkY7c3Ryb2tlOiNGRkZGRkY7c3Ryb2tlLXdpZHRoOjQ7fSYjeGE7CS5zdDE0e2ZpbGw6bm9uZTtzdHJva2U6I0ZGRkZGRjtzdHJva2Utd2lkdGg6NC4yMzMzO3N0cm9rZS1saW5lY2FwOnJvdW5kO3N0cm9rZS1saW5lam9pbjpyb3VuZDt9JiN4YTsJLnN0MTV7ZmlsbDpub25lO3N0cm9rZTojRkZGRkZGO3N0cm9rZS13aWR0aDo0O3N0cm9rZS1saW5lY2FwOnJvdW5kO30mI3hhOwkuc3QxNntmaWxsOiNGRkZGRkY7c3Ryb2tlOiNGRkZGRkY7c3Ryb2tlLW1pdGVybGltaXQ6MTA7fSYjeGE7CS5zdDE3e2ZpbGw6IzI2MjYyNjtzdHJva2U6I0ZGRkZGRjtzdHJva2Utd2lkdGg6NDtzdHJva2UtbWl0ZXJsaW1pdDoxMDt9JiN4YTsJLnN0MTh7ZmlsbDojRkZGRkZGO3N0cm9rZTojRkZGRkZGO3N0cm9rZS13aWR0aDo0O3N0cm9rZS1saW5lY2FwOnJvdW5kO3N0cm9rZS1saW5lam9pbjpyb3VuZDt9JiN4YTs8L3N0eWxlPiYjeGE7PHJlY3QgaGVpZ2h0PSIxMjAiIHdpZHRoPSIxMjAiIGNsYXNzPSJzdDAiLz4mI3hhOzxnPiYjeGE7CTxnPiYjeGE7CQk8cGF0aCBkPSJNNzEuNywxOS43VjQ4aDI4IiBjbGFzcz0ic3QxIi8+JiN4YTsJCTxwYXRoIGQ9Ik05MS4yLDM4LjVsNy41LDcuNmMxLjMsMS4zLDEuMywzLjEsMCw0LjNMOTEuMSw1OCIgY2xhc3M9InN0MSIvPiYjeGE7CTwvZz4mI3hhOwk8Zz4mI3hhOwkJPHBhdGggZD0iTTIwLDQ3LjhoMjguNHYtMjgiIGNsYXNzPSJzdDEiLz4mI3hhOwkJPHBhdGggZD0iTTM4LjgsMjguM2w3LjYtNy41YzEuMy0xLjMsMy4xLTEuMyw0LjMsMGw3LjcsNy42IiBjbGFzcz0ic3QxIi8+JiN4YTsJPC9nPiYjeGE7CTxnPiYjeGE7CQk8cGF0aCBkPSJNNDgsMTAwLjNWNzJIMjAiIGNsYXNzPSJzdDEiLz4mI3hhOwkJPHBhdGggZD0iTTI4LjUsODEuNUwyMSw3My45Yy0xLjMtMS4zLTEuMy0zLjEsMC00LjNsNy42LTcuNyIgY2xhc3M9InN0MSIvPiYjeGE7CTwvZz4mI3hhOwk8Zz4mI3hhOwkJPHBhdGggZD0iTTEwMCw3MS45SDcxLjZ2MjgiIGNsYXNzPSJzdDEiLz4mI3hhOwkJPHBhdGggZD0iTTgxLjIsOTEuNGwtNy42LDcuNWMtMS4zLDEuMy0zLjEsMS4zLTQuMywwbC03LjctNy42IiBjbGFzcz0ic3QxIi8+JiN4YTsJPC9nPiYjeGE7PC9nPiYjeGE7PC9zdmc+;" parent="1" vertex="1">
                        <mxGeometry x="522" y="795" width="75" height="75" as="geometry"/>
                    </mxCell>
                </object>
                <object label="linux21" id="clab-sites-linux21">
                    <mxCell style="shape=image;imageAlign=center;imageVerticalAlign=middle;labelPosition=left;align=right;verticalLabelPosition=top;spacingLeft=0;verticalAlign=bottom;spacingTop=0;spacing=0;editableCssRules=\.st[0-2]$;labelBackgroundColor=none;aspect=fixed;imageAspect=0;image=data:image/svg+xml,PHN2ZyB4bWxuczp4bGluaz0iaHR0cDovL3d3dy53My5vcmcvMTk5OS94bGluayIgeG1sbnM9Imh0dHA6Ly93d3cudzMub3JnLzIwMDAvc3ZnIiB4bWw6c3BhY2U9InByZXNlcnZlIiBzdHlsZT0iZW5hYmxlLWJhY2tncm91bmQ6bmV3IDAgMCAxMjAgMTIwO2VkaXRhYmxlQ3NzUnVsZXM9Lio7IiB2aWV3Qm94PSIwIDAgMTIwIDEyMCIgeT0iMHB4IiB4PSIwcHgiIGlkPSJMYXllcl8xIiB2ZXJzaW9uPSIxLjEiPiYjeGE7PHN0eWxlIHR5cGU9InRleHQvY3NzIj4mI3hhOwkuc3Qwe2ZpbGw6IzAwMTEzNTt9JiN4YTsJLnN0MXtmaWxsOm5vbmU7c3Ryb2tlOiNGRkZGRkY7c3Ryb2tlLXdpZHRoOjQ7c3Ryb2tlLWxpbmVjYXA6cm91bmQ7c3Ryb2tlLWxpbmVqb2luOnJvdW5kO3N0cm9rZS1taXRlcmxpbWl0OjEwO30mI3hhOwkuc3Qye2ZpbGw6I0ZGRkZGRjt9JiN4YTsJLnN0M3tmaWxsOm5vbmU7c3Ryb2tlOiNGRkZGRkY7c3Ryb2tlLXdpZHRoOjQ7c3Ryb2tlLW1pdGVybGltaXQ6MTA7fSYjeGE7CS5zdDR7ZmlsbDpub25lO3N0cm9rZTojRkZGRkZGO3N0cm9rZS13aWR0aDo0O3N0cm9rZS1saW5lY2FwOnJvdW5kO3N0cm9rZS1saW5lam9pbjpyb3VuZDt9JiN4YTsJLnN0NXtmaWxsOiNGRkZGRkY7c3Ryb2tlOiNGRkZGRkY7c3Ryb2tlLXdpZHRoOjQ7c3Ryb2tlLWxpbmVjYXA6cm91bmQ7c3Ryb2tlLWxpbmVqb2luOnJvdW5kO3N0cm9rZS1taXRlcmxpbWl0OjEwO30mI3hhOwkuc3Q2e2ZpbGw6bm9uZTtzdHJva2U6I0ZGRkZGRjtzdHJva2Utd2lkdGg6NC4yMzMzO3N0cm9rZS1saW5lY2FwOnJvdW5kO3N0cm9rZS1saW5lam9pbjpyb3VuZDtzdHJva2UtbWl0ZXJsaW1pdDoxMDt9JiN4YTsJLnN0N3tmaWxsOm5vbmU7c3Ryb2tlOiNGRkZGRkY7c3Ryb2tlLXdpZHRoOjQ7c3Ryb2tlLWxpbmVjYXA6cm91bmQ7c3Ryb2tlLW1pdGVybGltaXQ6MTA7fSYjeGE7CS5zdDh7ZmlsbDojRkZGRkZGO3N0cm9rZTojRkZGRkZGO3N0cm9rZS13aWR0aDo0O3N0cm9rZS1taXRlcmxpbWl0OjEwO30mI3hhOwkuc3Q5e2ZpbGw6I0ZGRkZGRjtzdHJva2U6I0ZGRkZGRjtzdHJva2Utd2lkdGg6NDt9JiN4YTsJLnN0MTB7ZmlsbDpub25lO3N0cm9rZTojRkZGRkZGO3N0cm9rZS13aWR0aDo0O30mI3hhOwkuc3QxMXtmaWxsOiMyNjI2MjY7c3Ryb2tlOiNGRkZGRkY7c3Ryb2tlLXdpZHRoOjQuMjMzMzt9JiN4YTsJLnN0MTJ7ZmlsbC1ydWxlOmV2ZW5vZGQ7Y2xpcC1ydWxlOmV2ZW5vZGQ7ZmlsbDpub25lO3N0cm9rZTojRkZGRkZGO3N0cm9rZS13aWR0aDo0O3N0cm9rZS1taXRlcmxpbWl0OjEwO30mI3hhOwkuc3QxM3tmaWxsLXJ1bGU6ZXZlbm9kZDtjbGlwLXJ1bGU6ZXZlbm9kZDtmaWxsOiNGRkZGRkY7c3Ryb2tlOiNGRkZGRkY7c3Ryb2tlLXdpZHRoOjQ7fSYjeGE7CS5zdDE0e2ZpbGw6bm9uZTtzdHJva2U6I0ZGRkZGRjtzdHJva2Utd2lkdGg6NC4yMzMzO3N0cm9rZS1saW5lY2FwOnJvdW5kO3N0cm9rZS1saW5lam9pbjpyb3VuZDt9JiN4YTsJLnN0MTV7ZmlsbDpub25lO3N0cm9rZTojRkZGRkZGO3N0cm9rZS13aWR0aDo0O3N0cm9rZS1saW5lY2FwOnJvdW5kO30mI3hhOwkuc3QxNntmaWxsOiNGRkZGRkY7c3Ryb2tlOiNGRkZGRkY7c3Ryb2tlLW1pdGVybGltaXQ6MTA7fSYjeGE7CS5zdDE3e2ZpbGw6IzI2MjYyNjtzdHJva2U6I0ZGRkZGRjtzdHJva2Utd2lkdGg6NDtzdHJva2UtbWl0ZXJsaW1pdDoxMDt9JiN4YTsJLnN0MTh7ZmlsbDojRkZGRkZGO3N0cm9rZTojRkZGRkZGO3N0cm9rZS13aWR0aDo0O3N0cm9rZS1saW5lY2FwOnJvdW5kO3N0cm9rZS1saW5lam9pbjpyb3VuZDt9JiN4YTs8L3N0eWxlPiYjeGE7PHJlY3QgaGVpZ2h0PSIxMjAiIHdpZHRoPSIxMjAiIGNsYXNzPSJzdDAiLz4mI3hhOzxnPiYjeGE7CTxnPiYjeGE7CQk8cGF0aCBkPSJNNzEuNywxOS43VjQ4aDI4IiBjbGFzcz0ic3QxIi8+JiN4YTsJCTxwYXRoIGQ9Ik05MS4yLDM4LjVsNy41LDcuNmMxLjMsMS4zLDEuMywzLjEsMCw0LjNMOTEuMSw1OCIgY2xhc3M9InN0MSIvPiYjeGE7CTwvZz4mI3hhOwk8Zz4mI3hhOwkJPHBhdGggZD0iTTIwLDQ3LjhoMjguNHYtMjgiIGNsYXNzPSJzdDEiLz4mI3hhOwkJPHBhdGggZD0iTTM4LjgsMjguM2w3LjYtNy41YzEuMy0xLjMsMy4xLTEuMyw0LjMsMGw3LjcsNy42IiBjbGFzcz0ic3QxIi8+JiN4YTsJPC9nPiYjeGE7CTxnPiYjeGE7CQk8cGF0aCBkPSJNNDgsMTAwLjNWNzJIMjAiIGNsYXNzPSJzdDEiLz4mI3hhOwkJPHBhdGggZD0iTTI4LjUsODEuNUwyMSw3My45Yy0xLjMtMS4zLTEuMy0zLjEsMC00LjNsNy42LTcuNyIgY2xhc3M9InN0MSIvPiYjeGE7CTwvZz4mI3hhOwk8Zz4mI3hhOwkJPHBhdGggZD0iTTEwMCw3MS45SDcxLjZ2MjgiIGNsYXNzPSJzdDEiLz4mI3hhOwkJPHBhdGggZD0iTTgxLjIsOTEuNGwtNy42LDcuNWMtMS4zLDEuMy0zLjEsMS4zLTQuMywwbC03LjctNy42IiBjbGFzcz0ic3QxIi8+JiN4YTsJPC9nPiYjeGE7PC9nPiYjeGE7PC9zdmc+;" parent="1" vertex="1">
                        <mxGeometry x="904" y="653" width="75" height="75" as="geometry"/>
                    </mxCell>
                </object>
                <object label="linux22" id="clab-sites-linux22">
                    <mxCell style="shape=image;imageAlign=center;imageVerticalAlign=middle;labelPosition=left;align=right;verticalLabelPosition=top;spacingLeft=0;verticalAlign=bottom;spacingTop=0;spacing=0;editableCssRules=\.st[0-2]$;labelBackgroundColor=none;aspect=fixed;imageAspect=0;image=data:image/svg+xml,PHN2ZyB4bWxuczp4bGluaz0iaHR0cDovL3d3dy53My5vcmcvMTk5OS94bGluayIgeG1sbnM9Imh0dHA6Ly93d3cudzMub3JnLzIwMDAvc3ZnIiB4bWw6c3BhY2U9InByZXNlcnZlIiBzdHlsZT0iZW5hYmxlLWJhY2tncm91bmQ6bmV3IDAgMCAxMjAgMTIwO2VkaXRhYmxlQ3NzUnVsZXM9Lio7IiB2aWV3Qm94PSIwIDAgMTIwIDEyMCIgeT0iMHB4IiB4PSIwcHgiIGlkPSJMYXllcl8xIiB2ZXJzaW9uPSIxLjEiPiYjeGE7PHN0eWxlIHR5cGU9InRleHQvY3NzIj4mI3hhOwkuc3Qwe2ZpbGw6IzAwMTEzNTt9JiN4YTsJLnN0MXtmaWxsOm5vbmU7c3Ryb2tlOiNGRkZGRkY7c3Ryb2tlLXdpZHRoOjQ7c3Ryb2tlLWxpbmVjYXA6cm91bmQ7c3Ryb2tlLWxpbmVqb2luOnJvdW5kO3N0cm9rZS1taXRlcmxpbWl0OjEwO30mI3hhOwkuc3Qye2ZpbGw6I0ZGRkZGRjt9JiN4YTsJLnN0M3tmaWxsOm5vbmU7c3Ryb2tlOiNGRkZGRkY7c3Ryb2tlLXdpZHRoOjQ7c3Ryb2tlLW1pdGVybGltaXQ6MTA7fSYjeGE7CS5zdDR7ZmlsbDpub25lO3N0cm9rZTojRkZGRkZGO3N0cm9rZS13aWR0aDo0O3N0cm9rZS1saW5lY2FwOnJvdW5kO3N0cm9rZS1saW5lam9pbjpyb3VuZDt9JiN4YTsJLnN0NXtmaWxsOiNGRkZGRkY7c3Ryb2tlOiNGRkZGRkY7c3Ryb2tlLXdpZHRoOjQ7c3Ryb2tlLWxpbmVjYXA6cm91bmQ7c3Ryb2tlLWxpbmVqb2luOnJvdW5kO3N0cm9rZS1taXRlcmxpbWl0OjEwO30mI3hhOwkuc3Q2e2ZpbGw6bm9uZTtzdHJva2U6I0ZGRkZGRjtzdHJva2Utd2lkdGg6NC4yMzMzO3N0cm9rZS1saW5lY2FwOnJvdW5kO3N0cm9rZS1saW5lam9pbjpyb3VuZDtzdHJva2UtbWl0ZXJsaW1pdDoxMDt9JiN4YTsJLnN0N3tmaWxsOm5vbmU7c3Ryb2tlOiNGRkZGRkY7c3Ryb2tlLXdpZHRoOjQ7c3Ryb2tlLWxpbmVjYXA6cm91bmQ7c3Ryb2tlLW1pdGVybGltaXQ6MTA7fSYjeGE7CS5zdDh7ZmlsbDojRkZGRkZGO3N0cm9rZTojRkZGRkZGO3N0cm9rZS13aWR0aDo0O3N0cm9rZS1taXRlcmxpbWl0OjEwO30mI3hhOwkuc3Q5e2ZpbGw6I0ZGRkZGRjtzdHJva2U6I0ZGRkZGRjtzdHJva2Utd2lkdGg6NDt9JiN4YTsJLnN0MTB7ZmlsbDpub25lO3N0cm9rZTojRkZGRkZGO3N0cm9rZS13aWR0aDo0O30mI3hhOwkuc3QxMXtmaWxsOiMyNjI2MjY7c3Ryb2tlOiNGRkZGRkY7c3Ryb2tlLXdpZHRoOjQuMjMzMzt9JiN4YTsJLnN0MTJ7ZmlsbC1ydWxlOmV2ZW5vZGQ7Y2xpcC1ydWxlOmV2ZW5vZGQ7ZmlsbDpub25lO3N0cm9rZTojRkZGRkZGO3N0cm9rZS13aWR0aDo0O3N0cm9rZS1taXRlcmxpbWl0OjEwO30mI3hhOwkuc3QxM3tmaWxsLXJ1bGU6ZXZlbm9kZDtjbGlwLXJ1bGU6ZXZlbm9kZDtmaWxsOiNGRkZGRkY7c3Ryb2tlOiNGRkZGRkY7c3Ryb2tlLXdpZHRoOjQ7fSYjeGE7CS5zdDE0e2ZpbGw6bm9uZTtzdHJva2U6I0ZGRkZGRjtzdHJva2Utd2lkdGg6NC4yMzMzO3N0cm9rZS1saW5lY2FwOnJvdW5kO3N0cm9rZS1saW5lam9pbjpyb3VuZDt9JiN4YTsJLnN0MTV7ZmlsbDpub25lO3N0cm9rZTojRkZGRkZGO3N0cm9rZS13aWR0aDo0O3N0cm9rZS1saW5lY2FwOnJvdW5kO30mI3hhOwkuc3QxNntmaWxsOiNGRkZGRkY7c3Ryb2tlOiNGRkZGRkY7c3Ryb2tlLW1pdGVybGltaXQ6MTA7fSYjeGE7CS5zdDE3e2ZpbGw6IzI2MjYyNjtzdHJva2U6I0ZGRkZGRjtzdHJva2Utd2lkdGg6NDtzdHJva2UtbWl0ZXJsaW1pdDoxMDt9JiN4YTsJLnN0MTh7ZmlsbDojRkZGRkZGO3N0cm9rZTojRkZGRkZGO3N0cm9rZS13aWR0aDo0O3N0cm9rZS1saW5lY2FwOnJvdW5kO3N0cm9rZS1saW5lam9pbjpyb3VuZDt9JiN4YTs8L3N0eWxlPiYjeGE7PHJlY3QgaGVpZ2h0PSIxMjAiIHdpZHRoPSIxMjAiIGNsYXNzPSJzdDAiLz4mI3hhOzxnPiYjeGE7CTxnPiYjeGE7CQk8cGF0aCBkPSJNNzEuNywxOS43VjQ4aDI4IiBjbGFzcz0ic3QxIi8+JiN4YTsJCTxwYXRoIGQ9Ik05MS4yLDM4LjVsNy41LDcuNmMxLjMsMS4zLDEuMywzLjEsMCw0LjNMOTEuMSw1OCIgY2xhc3M9InN0MSIvPiYjeGE7CTwvZz4mI3hhOwk8Zz4mI3hhOwkJPHBhdGggZD0iTTIwLDQ3LjhoMjguNHYtMjgiIGNsYXNzPSJzdDEiLz4mI3hhOwkJPHBhdGggZD0iTTM4LjgsMjguM2w3LjYtNy41YzEuMy0xLjMsMy4xLTEuMyw0LjMsMGw3LjcsNy42IiBjbGFzcz0ic3QxIi8+JiN4YTsJPC9nPiYjeGE7CTxnPiYjeGE7CQk8cGF0aCBkPSJNNDgsMTAwLjNWNzJIMjAiIGNsYXNzPSJzdDEiLz4mI3hhOwkJPHBhdGggZD0iTTI4LjUsODEuNUwyMSw3My45Yy0xLjMtMS4zLTEuMy0zLjEsMC00LjNsNy42LTcuNyIgY2xhc3M9InN0MSIvPiYjeGE7CTwvZz4mI3hhOwk8Zz4mI3hhOwkJPHBhdGggZD0iTTEwMCw3MS45SDcxLjZ2MjgiIGNsYXNzPSJzdDEiLz4mI3hhOwkJPHBhdGggZD0iTTgxLjIsOTEuNGwtNy42LDcuNWMtMS4zLDEuMy0zLjEsMS4zLTQuMywwbC03LjctNy42IiBjbGFzcz0ic3QxIi8+JiN4YTsJPC9nPiYjeGE7PC9nPiYjeGE7PC9zdmc+;" parent="1" vertex="1">
                        <mxGeometry x="1117" y="653" width="75" height="75" as="geometry"/>
                    </mxCell>
                </object>
                <object label="linux23" id="clab-sites-linux23">
                    <mxCell style="shape=image;imageAlign=center;imageVerticalAlign=middle;labelPosition=left;align=right;verticalLabelPosition=top;spacingLeft=0;verticalAlign=bottom;spacingTop=0;spacing=0;editableCssRules=\.st[0-2]$;labelBackgroundColor=none;aspect=fixed;imageAspect=0;image=data:image/svg+xml,PHN2ZyB4bWxuczp4bGluaz0iaHR0cDovL3d3dy53My5vcmcvMTk5OS94bGluayIgeG1sbnM9Imh0dHA6Ly93d3cudzMub3JnLzIwMDAvc3ZnIiB4bWw6c3BhY2U9InByZXNlcnZlIiBzdHlsZT0iZW5hYmxlLWJhY2tncm91bmQ6bmV3IDAgMCAxMjAgMTIwO2VkaXRhYmxlQ3NzUnVsZXM9Lio7IiB2aWV3Qm94PSIwIDAgMTIwIDEyMCIgeT0iMHB4IiB4PSIwcHgiIGlkPSJMYXllcl8xIiB2ZXJzaW9uPSIxLjEiPiYjeGE7PHN0eWxlIHR5cGU9InRleHQvY3NzIj4mI3hhOwkuc3Qwe2ZpbGw6IzAwMTEzNTt9JiN4YTsJLnN0MXtmaWxsOm5vbmU7c3Ryb2tlOiNGRkZGRkY7c3Ryb2tlLXdpZHRoOjQ7c3Ryb2tlLWxpbmVjYXA6cm91bmQ7c3Ryb2tlLWxpbmVqb2luOnJvdW5kO3N0cm9rZS1taXRlcmxpbWl0OjEwO30mI3hhOwkuc3Qye2ZpbGw6I0ZGRkZGRjt9JiN4YTsJLnN0M3tmaWxsOm5vbmU7c3Ryb2tlOiNGRkZGRkY7c3Ryb2tlLXdpZHRoOjQ7c3Ryb2tlLW1pdGVybGltaXQ6MTA7fSYjeGE7CS5zdDR7ZmlsbDpub25lO3N0cm9rZTojRkZGRkZGO3N0cm9rZS13aWR0aDo0O3N0cm9rZS1saW5lY2FwOnJvdW5kO3N0cm9rZS1saW5lam9pbjpyb3VuZDt9JiN4YTsJLnN0NXtmaWxsOiNGRkZGRkY7c3Ryb2tlOiNGRkZGRkY7c3Ryb2tlLXdpZHRoOjQ7c3Ryb2tlLWxpbmVjYXA6cm91bmQ7c3Ryb2tlLWxpbmVqb2luOnJvdW5kO3N0cm9rZS1taXRlcmxpbWl0OjEwO30mI3hhOwkuc3Q2e2ZpbGw6bm9uZTtzdHJva2U6I0ZGRkZGRjtzdHJva2Utd2lkdGg6NC4yMzMzO3N0cm9rZS1saW5lY2FwOnJvdW5kO3N0cm9rZS1saW5lam9pbjpyb3VuZDtzdHJva2UtbWl0ZXJsaW1pdDoxMDt9JiN4YTsJLnN0N3tmaWxsOm5vbmU7c3Ryb2tlOiNGRkZGRkY7c3Ryb2tlLXdpZHRoOjQ7c3Ryb2tlLWxpbmVjYXA6cm91bmQ7c3Ryb2tlLW1pdGVybGltaXQ6MTA7fSYjeGE7CS5zdDh7ZmlsbDojRkZGRkZGO3N0cm9rZTojRkZGRkZGO3N0cm9rZS13aWR0aDo0O3N0cm9rZS1taXRlcmxpbWl0OjEwO30mI3hhOwkuc3Q5e2ZpbGw6I0ZGRkZGRjtzdHJva2U6I0ZGRkZGRjtzdHJva2Utd2lkdGg6NDt9JiN4YTsJLnN0MTB7ZmlsbDpub25lO3N0cm9rZTojRkZGRkZGO3N0cm9rZS13aWR0aDo0O30mI3hhOwkuc3QxMXtmaWxsOiMyNjI2MjY7c3Ryb2tlOiNGRkZGRkY7c3Ryb2tlLXdpZHRoOjQuMjMzMzt9JiN4YTsJLnN0MTJ7ZmlsbC1ydWxlOmV2ZW5vZGQ7Y2xpcC1ydWxlOmV2ZW5vZGQ7ZmlsbDpub25lO3N0cm9rZTojRkZGRkZGO3N0cm9rZS13aWR0aDo0O3N0cm9rZS1taXRlcmxpbWl0OjEwO30mI3hhOwkuc3QxM3tmaWxsLXJ1bGU6ZXZlbm9kZDtjbGlwLXJ1bGU6ZXZlbm9kZDtmaWxsOiNGRkZGRkY7c3Ryb2tlOiNGRkZGRkY7c3Ryb2tlLXdpZHRoOjQ7fSYjeGE7CS5zdDE0e2ZpbGw6bm9uZTtzdHJva2U6I0ZGRkZGRjtzdHJva2Utd2lkdGg6NC4yMzMzO3N0cm9rZS1saW5lY2FwOnJvdW5kO3N0cm9rZS1saW5lam9pbjpyb3VuZDt9JiN4YTsJLnN0MTV7ZmlsbDpub25lO3N0cm9rZTojRkZGRkZGO3N0cm9rZS13aWR0aDo0O3N0cm9rZS1saW5lY2FwOnJvdW5kO30mI3hhOwkuc3QxNntmaWxsOiNGRkZGRkY7c3Ryb2tlOiNGRkZGRkY7c3Ryb2tlLW1pdGVybGltaXQ6MTA7fSYjeGE7CS5zdDE3e2ZpbGw6IzI2MjYyNjtzdHJva2U6I0ZGRkZGRjtzdHJva2Utd2lkdGg6NDtzdHJva2UtbWl0ZXJsaW1pdDoxMDt9JiN4YTsJLnN0MTh7ZmlsbDojRkZGRkZGO3N0cm9rZTojRkZGRkZGO3N0cm9rZS13aWR0aDo0O3N0cm9rZS1saW5lY2FwOnJvdW5kO3N0cm9rZS1saW5lam9pbjpyb3VuZDt9JiN4YTs8L3N0eWxlPiYjeGE7PHJlY3QgaGVpZ2h0PSIxMjAiIHdpZHRoPSIxMjAiIGNsYXNzPSJzdDAiLz4mI3hhOzxnPiYjeGE7CTxnPiYjeGE7CQk8cGF0aCBkPSJNNzEuNywxOS43VjQ4aDI4IiBjbGFzcz0ic3QxIi8+JiN4YTsJCTxwYXRoIGQ9Ik05MS4yLDM4LjVsNy41LDcuNmMxLjMsMS4zLDEuMywzLjEsMCw0LjNMOTEuMSw1OCIgY2xhc3M9InN0MSIvPiYjeGE7CTwvZz4mI3hhOwk8Zz4mI3hhOwkJPHBhdGggZD0iTTIwLDQ3LjhoMjguNHYtMjgiIGNsYXNzPSJzdDEiLz4mI3hhOwkJPHBhdGggZD0iTTM4LjgsMjguM2w3LjYtNy41YzEuMy0xLjMsMy4xLTEuMyw0LjMsMGw3LjcsNy42IiBjbGFzcz0ic3QxIi8+JiN4YTsJPC9nPiYjeGE7CTxnPiYjeGE7CQk8cGF0aCBkPSJNNDgsMTAwLjNWNzJIMjAiIGNsYXNzPSJzdDEiLz4mI3hhOwkJPHBhdGggZD0iTTI4LjUsODEuNUwyMSw3My45Yy0xLjMtMS4zLTEuMy0zLjEsMC00LjNsNy42LTcuNyIgY2xhc3M9InN0MSIvPiYjeGE7CTwvZz4mI3hhOwk8Zz4mI3hhOwkJPHBhdGggZD0iTTEwMCw3MS45SDcxLjZ2MjgiIGNsYXNzPSJzdDEiLz4mI3hhOwkJPHBhdGggZD0iTTgxLjIsOTEuNGwtNy42LDcuNWMtMS4zLDEuMy0zLjEsMS4zLTQuMywwbC03LjctNy42IiBjbGFzcz0ic3QxIi8+JiN4YTsJPC9nPiYjeGE7PC9nPiYjeGE7PC9zdmc+;" parent="1" vertex="1">
                        <mxGeometry x="1329" y="653" width="75" height="75" as="geometry"/>
                    </mxCell>
                </object>
                <object label="iot21" id="clab-sites-iot21">
                    <mxCell style="shape=image;imageAlign=center;imageVerticalAlign=middle;labelPosition=left;align=right;verticalLabelPosition=top;spacingLeft=0;verticalAlign=bottom;spacingTop=0;spacing=0;editableCssRules=\.st[0-2]$;labelBackgroundColor=none;aspect=fixed;imageAspect=0;image=data:image/svg+xml,PHN2ZyB4bWxuczp4bGluaz0iaHR0cDovL3d3dy53My5vcmcvMTk5OS94bGluayIgeG1sbnM9Imh0dHA6Ly93d3cudzMub3JnLzIwMDAvc3ZnIiB4bWw6c3BhY2U9InByZXNlcnZlIiBzdHlsZT0iZW5hYmxlLWJhY2tncm91bmQ6bmV3IDAgMCAxMjAgMTIwO2VkaXRhYmxlQ3NzUnVsZXM9Lio7IiB2aWV3Qm94PSIwIDAgMTIwIDEyMCIgeT0iMHB4IiB4PSIwcHgiIGlkPSJMYXllcl8xIiB2ZXJzaW9uPSIxLjEiPiYjeGE7PHN0eWxlIHR5cGU9InRleHQvY3NzIj4mI3hhOwkuc3Qwe2ZpbGw6IzAwMTEzNTt9JiN4YTsJLnN0MXtmaWxsOm5vbmU7c3Ryb2tlOiNGRkZGRkY7c3Ryb2tlLXdpZHRoOjQ7c3Ryb2tlLWxpbmVjYXA6cm91bmQ7c3Ryb2tlLWxpbmVqb2luOnJvdW5kO3N0cm9rZS1taXRlcmxpbWl0OjEwO30mI3hhOwkuc3Qye2ZpbGw6I0ZGRkZGRjt9JiN4YTsJLnN0M3tmaWxsOm5vbmU7c3Ryb2tlOiNGRkZGRkY7c3Ryb2tlLXdpZHRoOjQ7c3Ryb2tlLW1pdGVybGltaXQ6MTA7fSYjeGE7CS5zdDR7ZmlsbDpub25lO3N0cm9rZTojRkZGRkZGO3N0cm9rZS13aWR0aDo0O3N0cm9rZS1saW5lY2FwOnJvdW5kO3N0cm9rZS1saW5lam9pbjpyb3VuZDt9JiN4YTsJLnN0NXtmaWxsOiNGRkZGRkY7c3Ryb2tlOiNGRkZGRkY7c3Ryb2tlLXdpZHRoOjQ7c3Ryb2tlLWxpbmVjYXA6cm91bmQ7c3Ryb2tlLWxpbmVqb2luOnJvdW5kO3N0cm9rZS1taXRlcmxpbWl0OjEwO30mI3hhOwkuc3Q2e2ZpbGw6bm9uZTtzdHJva2U6I0ZGRkZGRjtzdHJva2Utd2lkdGg6NC4yMzMzO3N0cm9rZS1saW5lY2FwOnJvdW5kO3N0cm9rZS1saW5lam9pbjpyb3VuZDtzdHJva2UtbWl0ZXJsaW1pdDoxMDt9JiN4YTsJLnN0N3tmaWxsOm5vbmU7c3Ryb2tlOiNGRkZGRkY7c3Ryb2tlLXdpZHRoOjQ7c3Ryb2tlLWxpbmVjYXA6cm91bmQ7c3Ryb2tlLW1pdGVybGltaXQ6MTA7fSYjeGE7CS5zdDh7ZmlsbDojRkZGRkZGO3N0cm9rZTojRkZGRkZGO3N0cm9rZS13aWR0aDo0O3N0cm9rZS1taXRlcmxpbWl0OjEwO30mI3hhOwkuc3Q5e2ZpbGw6I0ZGRkZGRjtzdHJva2U6I0ZGRkZGRjtzdHJva2Utd2lkdGg6NDt9JiN4YTsJLnN0MTB7ZmlsbDpub25lO3N0cm9rZTojRkZGRkZGO3N0cm9rZS13aWR0aDo0O30mI3hhOwkuc3QxMXtmaWxsOiMyNjI2MjY7c3Ryb2tlOiNGRkZGRkY7c3Ryb2tlLXdpZHRoOjQuMjMzMzt9JiN4YTsJLnN0MTJ7ZmlsbC1ydWxlOmV2ZW5vZGQ7Y2xpcC1ydWxlOmV2ZW5vZGQ7ZmlsbDpub25lO3N0cm9rZTojRkZGRkZGO3N0cm9rZS13aWR0aDo0O3N0cm9rZS1taXRlcmxpbWl0OjEwO30mI3hhOwkuc3QxM3tmaWxsLXJ1bGU6ZXZlbm9kZDtjbGlwLXJ1bGU6ZXZlbm9kZDtmaWxsOiNGRkZGRkY7c3Ryb2tlOiNGRkZGRkY7c3Ryb2tlLXdpZHRoOjQ7fSYjeGE7CS5zdDE0e2ZpbGw6bm9uZTtzdHJva2U6I0ZGRkZGRjtzdHJva2Utd2lkdGg6NC4yMzMzO3N0cm9rZS1saW5lY2FwOnJvdW5kO3N0cm9rZS1saW5lam9pbjpyb3VuZDt9JiN4YTsJLnN0MTV7ZmlsbDpub25lO3N0cm9rZTojRkZGRkZGO3N0cm9rZS13aWR0aDo0O3N0cm9rZS1saW5lY2FwOnJvdW5kO30mI3hhOwkuc3QxNntmaWxsOiNGRkZGRkY7c3Ryb2tlOiNGRkZGRkY7c3Ryb2tlLW1pdGVybGltaXQ6MTA7fSYjeGE7CS5zdDE3e2ZpbGw6IzI2MjYyNjtzdHJva2U6I0ZGRkZGRjtzdHJva2Utd2lkdGg6NDtzdHJva2UtbWl0ZXJsaW1pdDoxMDt9JiN4YTsJLnN0MTh7ZmlsbDojRkZGRkZGO3N0cm9rZTojRkZGRkZGO3N0cm9rZS13aWR0aDo0O3N0cm9rZS1saW5lY2FwOnJvdW5kO3N0cm9rZS1saW5lam9pbjpyb3VuZDt9JiN4YTs8L3N0eWxlPiYjeGE7PHJlY3QgaGVpZ2h0PSIxMjAiIHdpZHRoPSIxMjAiIGNsYXNzPSJzdDAiLz4mI3hhOzxnPiYjeGE7CTxnPiYjeGE7CQk8cGF0aCBkPSJNNzEuNywxOS43VjQ4aDI4IiBjbGFzcz0ic3QxIi8+JiN4YTsJCTxwYXRoIGQ9Ik05MS4yLDM4LjVsNy41LDcuNmMxLjMsMS4zLDEuMywzLjEsMCw0LjNMOTEuMSw1OCIgY2xhc3M9InN0MSIvPiYjeGE7CTwvZz4mI3hhOwk8Zz4mI3hhOwkJPHBhdGggZD0iTTIwLDQ3LjhoMjguNHYtMjgiIGNsYXNzPSJzdDEiLz4mI3hhOwkJPHBhdGggZD0iTTM4LjgsMjguM2w3LjYtNy41YzEuMy0xLjMsMy4xLTEuMyw0LjMsMGw3LjcsNy42IiBjbGFzcz0ic3QxIi8+JiN4YTsJPC9nPiYjeGE7CTxnPiYjeGE7CQk8cGF0aCBkPSJNNDgsMTAwLjNWNzJIMjAiIGNsYXNzPSJzdDEiLz4mI3hhOwkJPHBhdGggZD0iTTI4LjUsODEuNUwyMSw3My45Yy0xLjMtMS4zLTEuMy0zLjEsMC00LjNsNy42LTcuNyIgY2xhc3M9InN0MSIvPiYjeGE7CTwvZz4mI3hhOwk8Zz4mI3hhOwkJPHBhdGggZD0iTTEwMCw3MS45SDcxLjZ2MjgiIGNsYXNzPSJzdDEiLz4mI3hhOwkJPHBhdGggZD0iTTgxLjIsOTEuNGwtNy42LDcuNWMtMS4zLDEuMy0zLjEsMS4zLTQuMywwbC03LjctNy42IiBjbGFzcz0ic3QxIi8+JiN4YTsJPC9nPiYjeGE7PC9nPiYjeGE7PC9zdmc+;" parent="1" vertex="1">
                        <mxGeometry x="1002" y="795" width="75" height="75" as="geometry"/>
                    </mxCell>
                </object>
                <object label="iot22" id="clab-sites-iot22">
                    <mxCell style="shape=image;imageAlign=center;imageVerticalAlign=middle;labelPosition=left;align=right;verticalLabelPosition=top;spacingLeft=0;verticalAlign=bottom;spacingTop=0;spacing=0;editableCssRules=\.st[0-2]$;labelBackgroundColor=none;aspect=fixed;imageAspect=0;image=data:image/svg+xml,PHN2ZyB4bWxuczp4bGluaz0iaHR0cDovL3d3dy53My5vcmcvMTk5OS94bGluayIgeG1sbnM9Imh0dHA6Ly93d3cudzMub3JnLzIwMDAvc3ZnIiB4bWw6c3BhY2U9InByZXNlcnZlIiBzdHlsZT0iZW5hYmxlLWJhY2tncm91bmQ6bmV3IDAgMCAxMjAgMTIwO2VkaXRhYmxlQ3NzUnVsZXM9Lio7IiB2aWV3Qm94PSIwIDAgMTIwIDEyMCIgeT0iMHB4IiB4PSIwcHgiIGlkPSJMYXllcl8xIiB2ZXJzaW9uPSIxLjEiPiYjeGE7PHN0eWxlIHR5cGU9InRleHQvY3NzIj4mI3hhOwkuc3Qwe2ZpbGw6IzAwMTEzNTt9JiN4YTsJLnN0MXtmaWxsOm5vbmU7c3Ryb2tlOiNGRkZGRkY7c3Ryb2tlLXdpZHRoOjQ7c3Ryb2tlLWxpbmVjYXA6cm91bmQ7c3Ryb2tlLWxpbmVqb2luOnJvdW5kO3N0cm9rZS1taXRlcmxpbWl0OjEwO30mI3hhOwkuc3Qye2ZpbGw6I0ZGRkZGRjt9JiN4YTsJLnN0M3tmaWxsOm5vbmU7c3Ryb2tlOiNGRkZGRkY7c3Ryb2tlLXdpZHRoOjQ7c3Ryb2tlLW1pdGVybGltaXQ6MTA7fSYjeGE7CS5zdDR7ZmlsbDpub25lO3N0cm9rZTojRkZGRkZGO3N0cm9rZS13aWR0aDo0O3N0cm9rZS1saW5lY2FwOnJvdW5kO3N0cm9rZS1saW5lam9pbjpyb3VuZDt9JiN4YTsJLnN0NXtmaWxsOiNGRkZGRkY7c3Ryb2tlOiNGRkZGRkY7c3Ryb2tlLXdpZHRoOjQ7c3Ryb2tlLWxpbmVjYXA6cm91bmQ7c3Ryb2tlLWxpbmVqb2luOnJvdW5kO3N0cm9rZS1taXRlcmxpbWl0OjEwO30mI3hhOwkuc3Q2e2ZpbGw6bm9uZTtzdHJva2U6I0ZGRkZGRjtzdHJva2Utd2lkdGg6NC4yMzMzO3N0cm9rZS1saW5lY2FwOnJvdW5kO3N0cm9rZS1saW5lam9pbjpyb3VuZDtzdHJva2UtbWl0ZXJsaW1pdDoxMDt9JiN4YTsJLnN0N3tmaWxsOm5vbmU7c3Ryb2tlOiNGRkZGRkY7c3Ryb2tlLXdpZHRoOjQ7c3Ryb2tlLWxpbmVjYXA6cm91bmQ7c3Ryb2tlLW1pdGVybGltaXQ6MTA7fSYjeGE7CS5zdDh7ZmlsbDojRkZGRkZGO3N0cm9rZTojRkZGRkZGO3N0cm9rZS13aWR0aDo0O3N0cm9rZS1taXRlcmxpbWl0OjEwO30mI3hhOwkuc3Q5e2ZpbGw6I0ZGRkZGRjtzdHJva2U6I0ZGRkZGRjtzdHJva2Utd2lkdGg6NDt9JiN4YTsJLnN0MTB7ZmlsbDpub25lO3N0cm9rZTojRkZGRkZGO3N0cm9rZS13aWR0aDo0O30mI3hhOwkuc3QxMXtmaWxsOiMyNjI2MjY7c3Ryb2tlOiNGRkZGRkY7c3Ryb2tlLXdpZHRoOjQuMjMzMzt9JiN4YTsJLnN0MTJ7ZmlsbC1ydWxlOmV2ZW5vZGQ7Y2xpcC1ydWxlOmV2ZW5vZGQ7ZmlsbDpub25lO3N0cm9rZTojRkZGRkZGO3N0cm9rZS13aWR0aDo0O3N0cm9rZS1taXRlcmxpbWl0OjEwO30mI3hhOwkuc3QxM3tmaWxsLXJ1bGU6ZXZlbm9kZDtjbGlwLXJ1bGU6ZXZlbm9kZDtmaWxsOiNGRkZGRkY7c3Ryb2tlOiNGRkZGRkY7c3Ryb2tlLXdpZHRoOjQ7fSYjeGE7CS5zdDE0e2ZpbGw6bm9uZTtzdHJva2U6I0ZGRkZGRjtzdHJva2Utd2lkdGg6NC4yMzMzO3N0cm9rZS1saW5lY2FwOnJvdW5kO3N0cm9rZS1saW5lam9pbjpyb3VuZDt9JiN4YTsJLnN0MTV7ZmlsbDpub25lO3N0cm9rZTojRkZGRkZGO3N0cm9rZS13aWR0aDo0O3N0cm9rZS1saW5lY2FwOnJvdW5kO30mI3hhOwkuc3QxNntmaWxsOiNGRkZGRkY7c3Ryb2tlOiNGRkZGRkY7c3Ryb2tlLW1pdGVybGltaXQ6MTA7fSYjeGE7CS5zdDE3e2ZpbGw6IzI2MjYyNjtzdHJva2U6I0ZGRkZGRjtzdHJva2Utd2lkdGg6NDtzdHJva2UtbWl0ZXJsaW1pdDoxMDt9JiN4YTsJLnN0MTh7ZmlsbDojRkZGRkZGO3N0cm9rZTojRkZGRkZGO3N0cm9rZS13aWR0aDo0O3N0cm9rZS1saW5lY2FwOnJvdW5kO3N0cm9rZS1saW5lam9pbjpyb3VuZDt9JiN4YTs8L3N0eWxlPiYjeGE7PHJlY3QgaGVpZ2h0PSIxMjAiIHdpZHRoPSIxMjAiIGNsYXNzPSJzdDAiLz4mI3hhOzxnPiYjeGE7CTxnPiYjeGE7CQk8cGF0aCBkPSJNNzEuNywxOS43VjQ4aDI4IiBjbGFzcz0ic3QxIi8+JiN4YTsJCTxwYXRoIGQ9Ik05MS4yLDM4LjVsNy41LDcuNmMxLjMsMS4zLDEuMywzLjEsMCw0LjNMOTEuMSw1OCIgY2xhc3M9InN0MSIvPiYjeGE7CTwvZz4mI3hhOwk8Zz4mI3hhOwkJPHBhdGggZD0iTTIwLDQ3LjhoMjguNHYtMjgiIGNsYXNzPSJzdDEiLz4mI3hhOwkJPHBhdGggZD0iTTM4LjgsMjguM2w3LjYtNy41YzEuMy0xLjMsMy4xLTEuMyw0LjMsMGw3LjcsNy42IiBjbGFzcz0ic3QxIi8+JiN4YTsJPC9nPiYjeGE7CTxnPiYjeGE7CQk8cGF0aCBkPSJNNDgsMTAwLjNWNzJIMjAiIGNsYXNzPSJzdDEiLz4mI3hhOwkJPHBhdGggZD0iTTI4LjUsODEuNUwyMSw3My45Yy0xLjMtMS4zLTEuMy0zLjEsMC00LjNsNy42LTcuNyIgY2xhc3M9InN0MSIvPiYjeGE7CTwvZz4mI3hhOwk8Zz4mI3hhOwkJPHBhdGggZD0iTTEwMCw3MS45SDcxLjZ2MjgiIGNsYXNzPSJzdDEiLz4mI3hhOwkJPHBhdGggZD0iTTgxLjIsOTEuNGwtNy42LDcuNWMtMS4zLDEuMy0zLjEsMS4zLTQuMywwbC03LjctNy42IiBjbGFzcz0ic3QxIi8+JiN4YTsJPC9nPiYjeGE7PC9nPiYjeGE7PC9zdmc+;" parent="1" vertex="1">
                        <mxGeometry x="1311" y="795" width="75" height="75" as="geometry"/>
                    </mxCell>
                </object>
                <object label="" src_label="eth1" trgt_label="Ethernet4" source="clab-sites-earth" target="clab-sites-wan1" id="link_id:link:clab-sites-earth:eth1:clab-sites-wan1:Ethernet4">
                    <mxCell style="endArrow=none;jumpStyle=gap;entryY=0;exitY=1;entryX=0.25;exitX=0.25;" parent="1" source="clab-sites-earth" target="clab-sites-wan1" edge="1">
                        <mxGeometry relative="1" as="geometry"/>
                    </mxCell>
                </object>
                <mxCell id="link_id:link:clab-sites-earth:eth1:clab-sites-wan1:Ethernet4-src" value="eth1" style="edgeLabel;html=1;align=center;verticalAlign=middle;resizable=0;points=[];;" parent="link_id:link:clab-sites-earth:eth1:clab-sites-wan1:Ethernet4" vertex="1" connectable="0">
                    <mxGeometry x="-0.5" relative="1" as="geometry">
                        <mxPoint as="offset"/>
                    </mxGeometry>
                </mxCell>
                <mxCell id="link_id:link:clab-sites-earth:eth1:clab-sites-wan1:Ethernet4-trgt" value="Ethernet4" style="edgeLabel;html=1;align=center;verticalAlign=middle;resizable=0;points=[];;" parent="link_id:link:clab-sites-earth:eth1:clab-sites-wan1:Ethernet4" vertex="1" connectable="0">
                    <mxGeometry x="0.5" relative="-1" as="geometry">
                        <mxPoint as="offset"/>
                    </mxGeometry>
                </mxCell>
                <object label="" src_label="eth2" trgt_label="Ethernet6" source="clab-sites-earth" target="clab-sites-wan1" id="link_id:link:clab-sites-earth:eth2:clab-sites-wan1:Ethernet6">
                    <mxCell style="endArrow=none;jumpStyle=gap;entryY=0;exitY=1;entryX=0.5;exitX=0.5;" parent="1" source="clab-sites-earth" target="clab-sites-wan1" edge="1">
                        <mxGeometry relative="1" as="geometry"/>
                    </mxCell>
                </object>
                <mxCell id="link_id:link:clab-sites-earth:eth2:clab-sites-wan1:Ethernet6-src" value="eth2" style="edgeLabel;html=1;align=center;verticalAlign=middle;resizable=0;points=[];;" parent="link_id:link:clab-sites-earth:eth2:clab-sites-wan1:Ethernet6" vertex="1" connectable="0">
                    <mxGeometry x="-0.5" relative="1" as="geometry">
                        <mxPoint as="offset"/>
                    </mxGeometry>
                </mxCell>
                <mxCell id="link_id:link:clab-sites-earth:eth2:clab-sites-wan1:Ethernet6-trgt" value="Ethernet6" style="edgeLabel;html=1;align=center;verticalAlign=middle;resizable=0;points=[];;" parent="link_id:link:clab-sites-earth:eth2:clab-sites-wan1:Ethernet6" vertex="1" connectable="0">
                    <mxGeometry x="0.5" relative="-1" as="geometry">
                        <mxPoint as="offset"/>
                    </mxGeometry>
                </mxCell>
                <object label="" src_label="eth3" trgt_label="Ethernet8" source="clab-sites-earth" target="clab-sites-wan1" id="link_id:link:clab-sites-earth:eth3:clab-sites-wan1:Ethernet8">
                    <mxCell style="endArrow=none;jumpStyle=gap;entryY=0;exitY=1;entryX=0.75;exitX=0.75;" parent="1" source="clab-sites-earth" target="clab-sites-wan1" edge="1">
                        <mxGeometry relative="1" as="geometry"/>
                    </mxCell>
                </object>
                <mxCell id="link_id:link:clab-sites-earth:eth3:clab-sites-wan1:Ethernet8-src" value="eth3" style="edgeLabel;html=1;align=center;verticalAlign=middle;resizable=0;points=[];;" parent="link_id:link:clab-sites-earth:eth3:clab-sites-wan1:Ethernet8" vertex="1" connectable="0">
                    <mxGeometry x="-0.5" relative="1" as="geometry">
                        <mxPoint as="offset"/>
                    </mxGeometry>
                </mxCell>
                <mxCell id="link_id:link:clab-sites-earth:eth3:clab-sites-wan1:Ethernet8-trgt" value="Ethernet8" style="edgeLabel;html=1;align=center;verticalAlign=middle;resizable=0;points=[];;" parent="link_id:link:clab-sites-earth:eth3:clab-sites-wan1:Ethernet8" vertex="1" connectable="0">
                    <mxGeometry x="0.5" relative="-1" as="geometry">
                        <mxPoint as="offset"/>
                    </mxGeometry>
                </mxCell>
                <object label="" src_label="eth4" trgt_label="Ethernet4" source="clab-sites-earth" target="clab-sites-wan2" id="link_id:link:clab-sites-earth:eth4:clab-sites-wan2:Ethernet4">
                    <mxCell style="endArrow=none;jumpStyle=gap;entryY=0;exitY=1;entryX=0.25;exitX=0.25;" parent="1" source="clab-sites-earth" target="clab-sites-wan2" edge="1">
                        <mxGeometry relative="1" as="geometry"/>
                    </mxCell>
                </object>
                <mxCell id="link_id:link:clab-sites-earth:eth4:clab-sites-wan2:Ethernet4-src" value="eth4" style="edgeLabel;html=1;align=center;verticalAlign=middle;resizable=0;points=[];;" parent="link_id:link:clab-sites-earth:eth4:clab-sites-wan2:Ethernet4" vertex="1" connectable="0">
                    <mxGeometry x="-0.5" relative="1" as="geometry">
                        <mxPoint as="offset"/>
                    </mxGeometry>
                </mxCell>
                <mxCell id="link_id:link:clab-sites-earth:eth4:clab-sites-wan2:Ethernet4-trgt" value="Ethernet4" style="edgeLabel;html=1;align=center;verticalAlign=middle;resizable=0;points=[];;" parent="link_id:link:clab-sites-earth:eth4:clab-sites-wan2:Ethernet4" vertex="1" connectable="0">
                    <mxGeometry x="0.5" relative="-1" as="geometry">
                        <mxPoint as="offset"/>
                    </mxGeometry>
                </mxCell>
                <object label="" src_label="eth5" trgt_label="Ethernet6" source="clab-sites-earth" target="clab-sites-wan2" id="link_id:link:clab-sites-earth:eth5:clab-sites-wan2:Ethernet6">
                    <mxCell style="endArrow=none;jumpStyle=gap;entryY=0;exitY=1;entryX=0.5;exitX=0.5;" parent="1" source="clab-sites-earth" target="clab-sites-wan2" edge="1">
                        <mxGeometry relative="1" as="geometry"/>
                    </mxCell>
                </object>
                <mxCell id="link_id:link:clab-sites-earth:eth5:clab-sites-wan2:Ethernet6-src" value="eth5" style="edgeLabel;html=1;align=center;verticalAlign=middle;resizable=0;points=[];;" parent="link_id:link:clab-sites-earth:eth5:clab-sites-wan2:Ethernet6" vertex="1" connectable="0">
                    <mxGeometry x="-0.5" relative="1" as="geometry">
                        <mxPoint as="offset"/>
                    </mxGeometry>
                </mxCell>
                <mxCell id="link_id:link:clab-sites-earth:eth5:clab-sites-wan2:Ethernet6-trgt" value="Ethernet6" style="edgeLabel;html=1;align=center;verticalAlign=middle;resizable=0;points=[];;" parent="link_id:link:clab-sites-earth:eth5:clab-sites-wan2:Ethernet6" vertex="1" connectable="0">
                    <mxGeometry x="0.5" relative="-1" as="geometry">
                        <mxPoint as="offset"/>
                    </mxGeometry>
                </mxCell>
                <object label="" src_label="eth6" trgt_label="Ethernet8" source="clab-sites-earth" target="clab-sites-wan2" id="link_id:link:clab-sites-earth:eth6:clab-sites-wan2:Ethernet8">
                    <mxCell style="endArrow=none;jumpStyle=gap;entryY=0;exitY=1;entryX=0.75;exitX=0.75;" parent="1" source="clab-sites-earth" target="clab-sites-wan2" edge="1">
                        <mxGeometry relative="1" as="geometry"/>
                    </mxCell>
                </object>
                <mxCell id="link_id:link:clab-sites-earth:eth6:clab-sites-wan2:Ethernet8-src" value="eth6" style="edgeLabel;html=1;align=center;verticalAlign=middle;resizable=0;points=[];;" parent="link_id:link:clab-sites-earth:eth6:clab-sites-wan2:Ethernet8" vertex="1" connectable="0">
                    <mxGeometry x="-0.5" relative="1" as="geometry">
                        <mxPoint as="offset"/>
                    </mxGeometry>
                </mxCell>
                <mxCell id="link_id:link:clab-sites-earth:eth6:clab-sites-wan2:Ethernet8-trgt" value="Ethernet8" style="edgeLabel;html=1;align=center;verticalAlign=middle;resizable=0;points=[];;" parent="link_id:link:clab-sites-earth:eth6:clab-sites-wan2:Ethernet8" vertex="1" connectable="0">
                    <mxGeometry x="0.5" relative="-1" as="geometry">
                        <mxPoint as="offset"/>
                    </mxGeometry>
                </mxCell>
                <object label="" src_label="Ethernet10" trgt_label="Ethernet4" source="clab-sites-wan1" target="clab-sites-access1" id="link_id:link:clab-sites-wan1:Ethernet10:clab-sites-access1:Ethernet4">
                    <mxCell style="endArrow=none;jumpStyle=gap;entryY=0;exitY=1;entryX=0.5;exitX=0.5;" parent="1" source="clab-sites-wan1" target="clab-sites-access1" edge="1">
                        <mxGeometry relative="1" as="geometry"/>
                    </mxCell>
                </object>
                <mxCell id="link_id:link:clab-sites-wan1:Ethernet10:clab-sites-access1:Ethernet4-src" value="Ethernet10" style="edgeLabel;html=1;align=center;verticalAlign=middle;resizable=0;points=[];;" parent="link_id:link:clab-sites-wan1:Ethernet10:clab-sites-access1:Ethernet4" vertex="1" connectable="0">
                    <mxGeometry x="-0.5" relative="1" as="geometry">
                        <mxPoint as="offset"/>
                    </mxGeometry>
                </mxCell>
                <mxCell id="link_id:link:clab-sites-wan1:Ethernet10:clab-sites-access1:Ethernet4-trgt" value="Ethernet4" style="edgeLabel;html=1;align=center;verticalAlign=middle;resizable=0;points=[];;" parent="link_id:link:clab-sites-wan1:Ethernet10:clab-sites-access1:Ethernet4" vertex="1" connectable="0">
                    <mxGeometry x="0.5" relative="-1" as="geometry">
                        <mxPoint as="offset"/>
                    </mxGeometry>
                </mxCell>
                <object label="" src_label="Ethernet12" trgt_label="eth1" source="clab-sites-access1" target="clab-sites-linux11" id="link_id:link:clab-sites-access1:Ethernet12:clab-sites-linux11:eth1">
                    <mxCell style="endArrow=none;jumpStyle=gap;entryY=0;exitY=1;entryX=0.5;exitX=0.5;" parent="1" source="clab-sites-access1" target="clab-sites-linux11" edge="1">
                        <mxGeometry relative="1" as="geometry"/>
                    </mxCell>
                </object>
                <mxCell id="link_id:link:clab-sites-access1:Ethernet12:clab-sites-linux11:eth1-src" value="Ethernet12" style="edgeLabel;html=1;align=center;verticalAlign=middle;resizable=0;points=[];;" parent="link_id:link:clab-sites-access1:Ethernet12:clab-sites-linux11:eth1" vertex="1" connectable="0">
                    <mxGeometry x="-0.5" relative="1" as="geometry">
                        <mxPoint as="offset"/>
                    </mxGeometry>
                </mxCell>
                <mxCell id="link_id:link:clab-sites-access1:Ethernet12:clab-sites-linux11:eth1-trgt" value="eth1" style="edgeLabel;html=1;align=center;verticalAlign=middle;resizable=0;points=[];;" parent="link_id:link:clab-sites-access1:Ethernet12:clab-sites-linux11:eth1" vertex="1" connectable="0">
                    <mxGeometry x="0.5" relative="-1" as="geometry">
                        <mxPoint as="offset"/>
                    </mxGeometry>
                </mxCell>
                <object label="" src_label="Ethernet14" trgt_label="eth1" source="clab-sites-access1" target="clab-sites-linux12" id="link_id:link:clab-sites-access1:Ethernet14:clab-sites-linux12:eth1">
                    <mxCell style="endArrow=none;jumpStyle=gap;entryY=0;exitY=1;entryX=0.5;exitX=0.5;" parent="1" source="clab-sites-access1" target="clab-sites-linux12" edge="1">
                        <mxGeometry relative="1" as="geometry"/>
                    </mxCell>
                </object>
                <mxCell id="link_id:link:clab-sites-access1:Ethernet14:clab-sites-linux12:eth1-src" value="Ethernet14" style="edgeLabel;html=1;align=center;verticalAlign=middle;resizable=0;points=[];;" parent="link_id:link:clab-sites-access1:Ethernet14:clab-sites-linux12:eth1" vertex="1" connectable="0">
                    <mxGeometry x="-0.5" relative="1" as="geometry">
                        <mxPoint as="offset"/>
                    </mxGeometry>
                </mxCell>
                <mxCell id="link_id:link:clab-sites-access1:Ethernet14:clab-sites-linux12:eth1-trgt" value="eth1" style="edgeLabel;html=1;align=center;verticalAlign=middle;resizable=0;points=[];;" parent="link_id:link:clab-sites-access1:Ethernet14:clab-sites-linux12:eth1" vertex="1" connectable="0">
                    <mxGeometry x="0.5" relative="-1" as="geometry">
                        <mxPoint as="offset"/>
                    </mxGeometry>
                </mxCell>
                <object label="" src_label="Ethernet16" trgt_label="eth1" source="clab-sites-access1" target="clab-sites-linux13" id="link_id:link:clab-sites-access1:Ethernet16:clab-sites-linux13:eth1">
                    <mxCell style="endArrow=none;jumpStyle=gap;entryY=0;exitY=1;entryX=0.5;exitX=0.5;" parent="1" source="clab-sites-access1" target="clab-sites-linux13" edge="1">
                        <mxGeometry relative="1" as="geometry"/>
                    </mxCell>
                </object>
                <mxCell id="link_id:link:clab-sites-access1:Ethernet16:clab-sites-linux13:eth1-src" value="Ethernet16" style="edgeLabel;html=1;align=center;verticalAlign=middle;resizable=0;points=[];;" parent="link_id:link:clab-sites-access1:Ethernet16:clab-sites-linux13:eth1" vertex="1" connectable="0">
                    <mxGeometry x="-0.5" relative="1" as="geometry">
                        <mxPoint as="offset"/>
                    </mxGeometry>
                </mxCell>
                <mxCell id="link_id:link:clab-sites-access1:Ethernet16:clab-sites-linux13:eth1-trgt" value="eth1" style="edgeLabel;html=1;align=center;verticalAlign=middle;resizable=0;points=[];;" parent="link_id:link:clab-sites-access1:Ethernet16:clab-sites-linux13:eth1" vertex="1" connectable="0">
                    <mxGeometry x="0.5" relative="-1" as="geometry">
                        <mxPoint as="offset"/>
                    </mxGeometry>
                </mxCell>
                <object label="" src_label="Ethernet24" trgt_label="eth1" source="clab-sites-access1" target="clab-sites-iot11" id="link_id:link:clab-sites-access1:Ethernet24:clab-sites-iot11:eth1">
                    <mxCell style="endArrow=none;jumpStyle=gap;entryY=0;exitY=1;entryX=0.5;exitX=0.5;" parent="1" source="clab-sites-access1" target="clab-sites-iot11" edge="1">
                        <mxGeometry relative="1" as="geometry"/>
                    </mxCell>
                </object>
                <mxCell id="link_id:link:clab-sites-access1:Ethernet24:clab-sites-iot11:eth1-src" value="Ethernet24" style="edgeLabel;html=1;align=center;verticalAlign=middle;resizable=0;points=[];;" parent="link_id:link:clab-sites-access1:Ethernet24:clab-sites-iot11:eth1" vertex="1" connectable="0">
                    <mxGeometry x="-0.5" relative="1" as="geometry">
                        <mxPoint as="offset"/>
                    </mxGeometry>
                </mxCell>
                <mxCell id="link_id:link:clab-sites-access1:Ethernet24:clab-sites-iot11:eth1-trgt" value="eth1" style="edgeLabel;html=1;align=center;verticalAlign=middle;resizable=0;points=[];;" parent="link_id:link:clab-sites-access1:Ethernet24:clab-sites-iot11:eth1" vertex="1" connectable="0">
                    <mxGeometry x="0.5" relative="-1" as="geometry">
                        <mxPoint as="offset"/>
                    </mxGeometry>
                </mxCell>
                <object label="" src_label="Ethernet26" trgt_label="eth1" source="clab-sites-access1" target="clab-sites-iot12" id="link_id:link:clab-sites-access1:Ethernet26:clab-sites-iot12:eth1">
                    <mxCell style="endArrow=none;jumpStyle=gap;entryY=0;exitY=1;entryX=0.5;exitX=0.5;" parent="1" source="clab-sites-access1" target="clab-sites-iot12" edge="1">
                        <mxGeometry relative="1" as="geometry"/>
                    </mxCell>
                </object>
                <mxCell id="link_id:link:clab-sites-access1:Ethernet26:clab-sites-iot12:eth1-src" value="Ethernet26" style="edgeLabel;html=1;align=center;verticalAlign=middle;resizable=0;points=[];;" parent="link_id:link:clab-sites-access1:Ethernet26:clab-sites-iot12:eth1" vertex="1" connectable="0">
                    <mxGeometry x="-0.5" relative="1" as="geometry">
                        <mxPoint as="offset"/>
                    </mxGeometry>
                </mxCell>
                <mxCell id="link_id:link:clab-sites-access1:Ethernet26:clab-sites-iot12:eth1-trgt" value="eth1" style="edgeLabel;html=1;align=center;verticalAlign=middle;resizable=0;points=[];;" parent="link_id:link:clab-sites-access1:Ethernet26:clab-sites-iot12:eth1" vertex="1" connectable="0">
                    <mxGeometry x="0.5" relative="-1" as="geometry">
                        <mxPoint as="offset"/>
                    </mxGeometry>
                </mxCell>
                <object label="" src_label="Ethernet10" trgt_label="Ethernet4" source="clab-sites-wan2" target="clab-sites-access2" id="link_id:link:clab-sites-wan2:Ethernet10:clab-sites-access2:Ethernet4">
                    <mxCell style="endArrow=none;jumpStyle=gap;entryY=0;exitY=1;entryX=0.5;exitX=0.5;" parent="1" source="clab-sites-wan2" target="clab-sites-access2" edge="1">
                        <mxGeometry relative="1" as="geometry"/>
                    </mxCell>
                </object>
                <mxCell id="link_id:link:clab-sites-wan2:Ethernet10:clab-sites-access2:Ethernet4-src" value="Ethernet10" style="edgeLabel;html=1;align=center;verticalAlign=middle;resizable=0;points=[];;" parent="link_id:link:clab-sites-wan2:Ethernet10:clab-sites-access2:Ethernet4" vertex="1" connectable="0">
                    <mxGeometry x="-0.5" relative="1" as="geometry">
                        <mxPoint as="offset"/>
                    </mxGeometry>
                </mxCell>
                <mxCell id="link_id:link:clab-sites-wan2:Ethernet10:clab-sites-access2:Ethernet4-trgt" value="Ethernet4" style="edgeLabel;html=1;align=center;verticalAlign=middle;resizable=0;points=[];;" parent="link_id:link:clab-sites-wan2:Ethernet10:clab-sites-access2:Ethernet4" vertex="1" connectable="0">
                    <mxGeometry x="0.5" relative="-1" as="geometry">
                        <mxPoint as="offset"/>
                    </mxGeometry>
                </mxCell>
                <object label="" src_label="Ethernet12" trgt_label="eth1" source="clab-sites-access2" target="clab-sites-linux21" id="link_id:link:clab-sites-access2:Ethernet12:clab-sites-linux21:eth1">
                    <mxCell style="endArrow=none;jumpStyle=gap;entryY=0;exitY=1;entryX=0.5;exitX=0.5;" parent="1" source="clab-sites-access2" target="clab-sites-linux21" edge="1">
                        <mxGeometry relative="1" as="geometry"/>
                    </mxCell>
                </object>
                <mxCell id="link_id:link:clab-sites-access2:Ethernet12:clab-sites-linux21:eth1-src" value="Ethernet12" style="edgeLabel;html=1;align=center;verticalAlign=middle;resizable=0;points=[];;" parent="link_id:link:clab-sites-access2:Ethernet12:clab-sites-linux21:eth1" vertex="1" connectable="0">
                    <mxGeometry x="-0.5" relative="1" as="geometry">
                        <mxPoint as="offset"/>
                    </mxGeometry>
                </mxCell>
                <mxCell id="link_id:link:clab-sites-access2:Ethernet12:clab-sites-linux21:eth1-trgt" value="eth1" style="edgeLabel;html=1;align=center;verticalAlign=middle;resizable=0;points=[];;" parent="link_id:link:clab-sites-access2:Ethernet12:clab-sites-linux21:eth1" vertex="1" connectable="0">
                    <mxGeometry x="0.5" relative="-1" as="geometry">
                        <mxPoint as="offset"/>
                    </mxGeometry>
                </mxCell>
                <object label="" src_label="Ethernet14" trgt_label="eth1" source="clab-sites-access2" target="clab-sites-linux22" id="link_id:link:clab-sites-access2:Ethernet14:clab-sites-linux22:eth1">
                    <mxCell style="endArrow=none;jumpStyle=gap;entryY=0;exitY=1;entryX=0.5;exitX=0.5;" parent="1" source="clab-sites-access2" target="clab-sites-linux22" edge="1">
                        <mxGeometry relative="1" as="geometry"/>
                    </mxCell>
                </object>
                <mxCell id="link_id:link:clab-sites-access2:Ethernet14:clab-sites-linux22:eth1-src" value="Ethernet14" style="edgeLabel;html=1;align=center;verticalAlign=middle;resizable=0;points=[];;" parent="link_id:link:clab-sites-access2:Ethernet14:clab-sites-linux22:eth1" vertex="1" connectable="0">
                    <mxGeometry x="-0.5" relative="1" as="geometry">
                        <mxPoint as="offset"/>
                    </mxGeometry>
                </mxCell>
                <mxCell id="link_id:link:clab-sites-access2:Ethernet14:clab-sites-linux22:eth1-trgt" value="eth1" style="edgeLabel;html=1;align=center;verticalAlign=middle;resizable=0;points=[];;" parent="link_id:link:clab-sites-access2:Ethernet14:clab-sites-linux22:eth1" vertex="1" connectable="0">
                    <mxGeometry x="0.5" relative="-1" as="geometry">
                        <mxPoint as="offset"/>
                    </mxGeometry>
                </mxCell>
                <object label="" src_label="Ethernet16" trgt_label="eth1" source="clab-sites-access2" target="clab-sites-linux23" id="link_id:link:clab-sites-access2:Ethernet16:clab-sites-linux23:eth1">
                    <mxCell style="endArrow=none;jumpStyle=gap;entryY=0;exitY=1;entryX=0.5;exitX=0.5;" parent="1" source="clab-sites-access2" target="clab-sites-linux23" edge="1">
                        <mxGeometry relative="1" as="geometry"/>
                    </mxCell>
                </object>
                <mxCell id="link_id:link:clab-sites-access2:Ethernet16:clab-sites-linux23:eth1-src" value="Ethernet16" style="edgeLabel;html=1;align=center;verticalAlign=middle;resizable=0;points=[];;" parent="link_id:link:clab-sites-access2:Ethernet16:clab-sites-linux23:eth1" vertex="1" connectable="0">
                    <mxGeometry x="-0.5" relative="1" as="geometry">
                        <mxPoint as="offset"/>
                    </mxGeometry>
                </mxCell>
                <mxCell id="link_id:link:clab-sites-access2:Ethernet16:clab-sites-linux23:eth1-trgt" value="eth1" style="edgeLabel;html=1;align=center;verticalAlign=middle;resizable=0;points=[];;" parent="link_id:link:clab-sites-access2:Ethernet16:clab-sites-linux23:eth1" vertex="1" connectable="0">
                    <mxGeometry x="0.5" relative="-1" as="geometry">
                        <mxPoint as="offset"/>
                    </mxGeometry>
                </mxCell>
                <object label="" src_label="Ethernet24" trgt_label="eth1" source="clab-sites-access2" target="clab-sites-iot21" id="link_id:link:clab-sites-access2:Ethernet24:clab-sites-iot21:eth1">
                    <mxCell style="endArrow=none;jumpStyle=gap;entryY=0;exitY=1;entryX=0.5;exitX=0.5;" parent="1" source="clab-sites-access2" target="clab-sites-iot21" edge="1">
                        <mxGeometry relative="1" as="geometry"/>
                    </mxCell>
                </object>
                <mxCell id="link_id:link:clab-sites-access2:Ethernet24:clab-sites-iot21:eth1-src" value="Ethernet24" style="edgeLabel;html=1;align=center;verticalAlign=middle;resizable=0;points=[];;" parent="link_id:link:clab-sites-access2:Ethernet24:clab-sites-iot21:eth1" vertex="1" connectable="0">
                    <mxGeometry x="-0.5" relative="1" as="geometry">
                        <mxPoint as="offset"/>
                    </mxGeometry>
                </mxCell>
                <mxCell id="link_id:link:clab-sites-access2:Ethernet24:clab-sites-iot21:eth1-trgt" value="eth1" style="edgeLabel;html=1;align=center;verticalAlign=middle;resizable=0;points=[];;" parent="link_id:link:clab-sites-access2:Ethernet24:clab-sites-iot21:eth1" vertex="1" connectable="0">
                    <mxGeometry x="0.5" relative="-1" as="geometry">
                        <mxPoint as="offset"/>
                    </mxGeometry>
                </mxCell>
                <object label="" src_label="Ethernet26" trgt_label="eth1" source="clab-sites-access2" target="clab-sites-iot22" id="link_id:link:clab-sites-access2:Ethernet26:clab-sites-iot22:eth1">
                    <mxCell style="endArrow=none;jumpStyle=gap;entryY=0;exitY=1;entryX=0.5;exitX=0.5;" parent="1" source="clab-sites-access2" target="clab-sites-iot22" edge="1">
                        <mxGeometry relative="1" as="geometry"/>
                    </mxCell>
                </object>
                <mxCell id="link_id:link:clab-sites-access2:Ethernet26:clab-sites-iot22:eth1-src" value="Ethernet26" style="edgeLabel;html=1;align=center;verticalAlign=middle;resizable=0;points=[];;" parent="link_id:link:clab-sites-access2:Ethernet26:clab-sites-iot22:eth1" vertex="1" connectable="0">
                    <mxGeometry x="-0.5" relative="1" as="geometry">
                        <mxPoint as="offset"/>
                    </mxGeometry>
                </mxCell>
                <mxCell id="link_id:link:clab-sites-access2:Ethernet26:clab-sites-iot22:eth1-trgt" value="eth1" style="edgeLabel;html=1;align=center;verticalAlign=middle;resizable=0;points=[];;" parent="link_id:link:clab-sites-access2:Ethernet26:clab-sites-iot22:eth1" vertex="1" connectable="0">
                    <mxGeometry x="0.5" relative="-1" as="geometry">
                        <mxPoint as="offset"/>
                    </mxGeometry>
                </mxCell>
            </root>
        </mxGraphModel>
    </diagram>
</mxfile>